<svg width="24" height="24" viewBox="0 0 24 24" fill="none" xmlns="http://www.w3.org/2000/svg">
<path d="M18.5 20.5C20.1569 20.5 21.5 19.1569 21.5 17.5C21.5 15.8431 20.1569 14.5 18.5 14.5C16.8432 14.5 15.5 15.8431 15.5 17.5C15.5 19.1569 16.8432 20.5 18.5 20.5Z" stroke="white" stroke-linecap="round" stroke-linejoin="round"/>
<path d="M0.5 10.5L4.212 4C4.29994 3.84769 4.42648 3.72127 4.57888 3.63348C4.73128 3.5457 4.90413 3.49965 5.08 3.5H13.934C14.1067 3.50014 14.2764 3.54497 14.4265 3.63014C14.5767 3.71531 14.7023 3.8379 14.791 3.986L17.5 8.5" stroke="white" stroke-linecap="round" stroke-linejoin="round"/>
<path d="M8.5 3.5V10.5" stroke="white" stroke-linecap="round" stroke-linejoin="round"/>
<path d="M13.5 8.5L12 7" stroke="white" stroke-linecap="round" stroke-linejoin="round"/>
<path d="M13 6L11 8" stroke="white" stroke-linecap="round" stroke-linejoin="round"/>
<path d="M1.707 14.293C1.60812 14.3919 1.48214 14.4593 1.34497 14.4866C1.20781 14.5139 1.06563 14.4998 0.936422 14.4463C0.807216 14.3928 0.696787 14.3022 0.619102 14.1859C0.541418 14.0696 0.49997 13.9329 0.5 13.793V10.5H10.5C10.817 10.5 11.131 10.4376 11.4238 10.3163C11.7167 10.195 11.9829 10.0172 12.207 9.793L13.5 8.5H21.5C22.0305 8.5 22.5392 8.71071 22.9142 9.08579C23.2893 9.46086 23.5 9.96957 23.5 10.5V13.793C23.5001 13.9329 23.4586 14.0696 23.3809 14.1859C23.3032 14.3022 23.1928 14.3928 23.0636 14.4463C22.9344 14.4998 22.7922 14.5139 22.6551 14.4866C22.5179 14.4593 22.3919 14.3919 22.293 14.293L21.207 13.207C20.9829 12.9828 20.7167 12.805 20.4238 12.6837C20.131 12.5624 19.817 12.5 19.5 12.5H17.5C17.183 12.5 16.8691 12.5624 16.5762 12.6837C16.2833 12.805 16.0172 12.9828 15.793 13.207L13.793 15.207C13.6055 15.3945 13.3512 15.4999 13.086 15.5H10.914C10.6488 15.4999 10.3945 15.3945 10.207 15.207L8.207 13.207C7.98283 12.9828 7.71671 12.805 7.42382 12.6837C7.13093 12.5624 6.81702 12.5 6.5 12.5H4.5C4.18299 12.5 3.86907 12.5624 3.57618 12.6837C3.2833 12.805 3.01717 12.9828 2.793 13.207L1.707 14.293Z" stroke="white" stroke-linecap="round" stroke-linejoin="round"/>
<path d="M23.5 10.5H21.5" stroke="white" stroke-linecap="round" stroke-linejoin="round"/>
<path d="M5.5 20.5C7.15685 20.5 8.5 19.1569 8.5 17.5C8.5 15.8431 7.15685 14.5 5.5 14.5C3.84315 14.5 2.5 15.8431 2.5 17.5C2.5 19.1569 3.84315 20.5 5.5 20.5Z" stroke="white" stroke-linecap="round" stroke-linejoin="round"/>
<path d="M5.5 17.75C5.36193 17.75 5.25 17.6381 5.25 17.5C5.25 17.3619 5.36193 17.25 5.5 17.25" stroke="white"/>
<path d="M5.5 17.75C5.63807 17.75 5.75 17.6381 5.75 17.5C5.75 17.3619 5.63807 17.25 5.5 17.25" stroke="white"/>
<path d="M18.5 17.75C18.362 17.75 18.25 17.6381 18.25 17.5C18.25 17.3619 18.362 17.25 18.5 17.25" stroke="white"/>
<path d="M18.5 17.75C18.6381 17.75 18.75 17.6381 18.75 17.5C18.75 17.3619 18.6381 17.25 18.5 17.25" stroke="white"/>
</svg>
