<svg width="40" height="40" viewBox="0 0 40 40" fill="none" xmlns="http://www.w3.org/2000/svg">
<path d="M14.1166 34.4216C13.5503 34.0268 13.0476 33.5433 12.6274 32.9849C12.1689 32.4065 11.744 31.7981 11.3537 31.1685C10.4368 29.7693 9.71971 28.2389 9.22292 26.6261C8.62438 24.7497 8.3335 22.9533 8.3335 21.1956C8.3335 19.2342 8.7405 17.5227 9.53296 16.086C10.1195 14.9617 10.9934 14.021 12.0468 13.3601C13.0643 12.698 14.2494 12.3357 15.4465 12.3107C15.8655 12.3107 16.3204 12.3732 16.7992 12.4981C17.1463 12.5981 17.5653 12.7605 18.0801 12.9604C18.7384 13.2227 19.0976 13.3851 19.2173 13.4226C19.6003 13.5725 19.9235 13.635 20.1749 13.635C20.3665 13.635 20.6418 13.5725 20.947 13.4726C21.1206 13.4101 21.4498 13.2977 21.9167 13.0853C22.3787 12.9104 22.745 12.7605 23.0359 12.648C23.4789 12.5106 23.9074 12.3857 24.2929 12.3232C24.7597 12.2483 25.223 12.2233 25.6671 12.2608C26.517 12.3232 27.2951 12.5106 27.9894 12.7855C29.2104 13.2977 30.1956 14.0972 30.9306 15.234C30.6194 15.4339 30.3321 15.6663 30.0628 15.9211C29.4798 16.4583 28.9854 17.0954 28.5904 17.8013C28.0756 18.7632 27.8123 19.8501 27.8194 20.9494C27.8374 22.3024 28.1666 23.4917 28.825 24.5224C29.2882 25.2719 29.9071 25.914 30.6613 26.4412C31.0324 26.7036 31.358 26.8847 31.6668 27.0034C31.5232 27.4719 31.3652 27.9279 31.182 28.3776C30.7666 29.3858 30.2722 30.3515 29.6857 31.2634C29.1685 32.0505 28.7615 32.6376 28.4527 33.0249C27.9715 33.6245 27.507 34.0743 27.0401 34.3954C26.5254 34.7514 25.9209 34.94 25.302 34.94C24.883 34.9588 24.464 34.9026 24.0642 34.7814C23.7171 34.6627 23.3747 34.529 23.0395 34.3779C22.6888 34.2105 22.3261 34.068 21.9562 33.9531C21.5013 33.8282 21.0344 33.7682 20.5628 33.7695C20.084 33.7695 19.6171 33.8319 19.1742 33.9506C18.8031 34.0605 18.444 34.1955 18.0884 34.3566C17.5857 34.5752 17.2565 34.7189 17.0649 34.7814C16.6771 34.9013 16.2797 34.9738 15.8798 35C15.2574 35 14.678 34.8126 14.101 34.4378L14.1166 34.4216ZM22.3213 11.36C21.5073 11.7848 20.734 11.9647 19.9595 11.9047C19.8398 11.0977 19.9595 10.2682 20.2827 9.35996C20.57 8.58541 20.953 7.88582 21.4797 7.26118C22.0304 6.61156 22.6888 6.07437 23.431 5.6871C24.221 5.26235 24.9752 5.03748 25.6934 5C25.7892 5.8495 25.6934 6.68652 25.3942 7.58599C25.1212 8.38552 24.7142 9.12259 24.1971 9.78471C23.6764 10.4343 23.03 10.9715 22.2985 11.3588L22.3213 11.36Z" fill="white"/>
</svg>
