<svg width="16" height="17" viewBox="0 0 16 17" fill="none" xmlns="http://www.w3.org/2000/svg">
<g clip-path="url(#clip0_2824_3110)">
<path d="M11.834 8.328V1" stroke="black" stroke-width="0.5" stroke-linecap="round" stroke-linejoin="round"/>
<path d="M11.834 1H13.208C13.8153 1 14.3978 1.24127 14.8273 1.67073C15.2567 2.10018 15.498 2.68265 15.498 3.29C15.498 3.89735 15.2567 4.47982 14.8273 4.90927C14.3978 5.33873 13.8153 5.58 13.208 5.58H11.834" stroke="black" stroke-width="0.5" stroke-linecap="round" stroke-linejoin="round"/>
<path d="M3.00195 2.75C3.00195 2.97981 3.04722 3.20738 3.13516 3.4197C3.22311 3.63202 3.35201 3.82493 3.51452 3.98744C3.67702 4.14994 3.86994 4.27884 4.08226 4.36679C4.29458 4.45473 4.52214 4.5 4.75195 4.5C4.98177 4.5 5.20933 4.45473 5.42165 4.36679C5.63397 4.27884 5.82689 4.14994 5.98939 3.98744C6.15189 3.82493 6.2808 3.63202 6.36874 3.4197C6.45669 3.20738 6.50195 2.97981 6.50195 2.75C6.50195 2.52019 6.45669 2.29262 6.36874 2.0803C6.2808 1.86798 6.15189 1.67507 5.98939 1.51256C5.82689 1.35006 5.63397 1.22116 5.42165 1.13321C5.20933 1.04527 4.98177 1 4.75195 1C4.52214 1 4.29458 1.04527 4.08226 1.13321C3.86994 1.22116 3.67702 1.35006 3.51452 1.51256C3.35201 1.67507 3.22311 1.86798 3.13516 2.0803C3.04722 2.29262 3.00195 2.52019 3.00195 2.75Z" stroke="black" stroke-width="0.5" stroke-linecap="round" stroke-linejoin="round"/>
<path d="M7.57372 14.5608C7.23941 14.9705 6.82721 15.3098 6.36093 15.5591C5.89465 15.8085 5.38357 15.9629 4.85723 16.0135C4.33089 16.0641 3.79975 16.0098 3.29452 15.8538C2.78929 15.6978 2.32001 15.4432 1.91381 15.1047C1.50761 14.7662 1.17255 14.3505 0.928028 13.8816C0.683502 13.4128 0.534354 12.9002 0.489213 12.3733C0.444072 11.8465 0.503832 11.3159 0.665037 10.8124C0.826242 10.3088 1.08569 9.84214 1.42838 9.43945" stroke="black" stroke-width="0.5" stroke-linecap="round" stroke-linejoin="round"/>
<path d="M10.734 14.6407L8.83395 12.3607C8.74066 12.2477 8.62355 12.1568 8.491 12.0945C8.35846 12.0321 8.21376 11.9999 8.06729 12H4.50195C4.23674 12 3.98238 11.8946 3.79485 11.7071C3.60731 11.5196 3.50195 11.2652 3.50195 11V7C3.50195 6.73478 3.60731 6.48043 3.79485 6.29289C3.98238 6.10536 4.23674 6 4.50195 6H7.04129C7.3065 6 7.56086 6.10536 7.74839 6.29289C7.93593 6.48043 8.04129 6.73478 8.04129 7C8.04129 7.26522 7.93593 7.51957 7.74839 7.70711C7.56086 7.89464 7.3065 8 7.04129 8H5.50195V10H8.06729C8.50723 9.99938 8.9419 10.0958 9.34027 10.2825C9.73865 10.4692 10.0909 10.7415 10.372 11.08L12.2726 13.3593C12.3568 13.4604 12.4202 13.577 12.4592 13.7025C12.4983 13.828 12.5123 13.9601 12.5003 14.091C12.4884 14.2219 12.4507 14.3492 12.3896 14.4656C12.3285 14.582 12.245 14.6852 12.144 14.7693C12.0429 14.8535 11.9263 14.9169 11.8008 14.9559C11.6752 14.995 11.5432 15.009 11.4123 14.997C11.2814 14.9851 11.1541 14.9475 11.0377 14.8863C10.9213 14.8252 10.8181 14.7417 10.734 14.6407Z" stroke="black" stroke-width="0.5" stroke-linecap="round" stroke-linejoin="round"/>
</g>
<defs>
<clipPath id="clip0_2824_3110">
<rect width="16" height="16" fill="white" transform="translate(0 0.5)"/>
</clipPath>
</defs>
</svg>
