<svg width="254" height="45" viewBox="0 0 254 45" fill="none" xmlns="http://www.w3.org/2000/svg">
<path d="M4.03174 0L4.03174 45L7.05555 45L7.05555 -1.17959e-07L4.03174 0Z" fill="black"/>
<path d="M10.0793 0L10.0793 45L11.0873 45L11.0873 -2.41951e-08L10.0793 0Z" fill="black"/>
<path d="M14.1111 0L14.1111 39L18.1428 39L18.1428 -9.63898e-08L14.1111 0Z" fill="black"/>
<path d="M21.1667 0L21.1667 39L23.1826 39L23.1826 -4.81949e-08L21.1667 0Z" fill="black"/>
<path d="M26.2063 0L26.2063 39L29.2301 39L29.2301 -7.22924e-08L26.2063 0Z" fill="black"/>
<path d="M32.2539 0L32.2539 39L33.2618 39L33.2618 -2.40975e-08L32.2539 0Z" fill="black"/>
<path d="M35.2778 0L35.2778 39L36.2858 39L36.2858 -2.40975e-08L35.2778 0Z" fill="black"/>
<path d="M38.3015 0L38.3015 39L41.3253 39L41.3253 -7.22924e-08L38.3015 0Z" fill="black"/>
<path d="M45.3572 0L45.3572 39L46.3651 39L46.3651 -2.40975e-08L45.3572 0Z" fill="black"/>
<path d="M51.4048 0L51.4048 39L52.4127 39L52.4127 -2.40975e-08L51.4048 0Z" fill="black"/>
<path d="M60.4761 0L60.4761 39L61.484 39L61.484 -2.40975e-08L60.4761 0Z" fill="black"/>
<path d="M84.6667 0L84.6667 39L85.6747 39L85.6747 -2.40975e-08L84.6667 0Z" fill="black"/>
<path d="M190.5 0L190.5 39L191.508 39L191.508 -2.40975e-08L190.5 0Z" fill="black"/>
<path d="M182.437 0L182.437 39L183.444 39L183.444 -2.40975e-08L182.437 0Z" fill="black"/>
<path d="M19.1509 0L19.1509 39L20.1588 39L20.1588 -2.40975e-08L19.1509 0Z" fill="black"/>
<path d="M55.4365 0L55.4365 39L59.4683 39L59.4683 -9.63898e-08L55.4365 0Z" fill="black"/>
<path d="M63.5 0L63.5 39L64.5079 39L64.5079 -2.40975e-08L63.5 0Z" fill="black"/>
<path d="M106.841 0L106.841 39L107.849 39L107.849 -2.40975e-08L106.841 0Z" fill="black"/>
<path d="M65.5159 0L65.5159 39L67.5317 39L67.5317 -4.81949e-08L65.5159 0Z" fill="black"/>
<path d="M68.5398 0L68.5398 39L70.5557 39L70.5557 -4.81949e-08L68.5398 0Z" fill="black"/>
<path d="M74.5874 0L74.5874 39L76.6033 39L76.6033 -4.81949e-08L74.5874 0Z" fill="black"/>
<path d="M79.627 0L79.627 39L83.6587 39L83.6587 -9.63898e-08L79.627 0Z" fill="black"/>
<path d="M86.6826 0L86.6826 39L87.6906 39L87.6906 -2.40975e-08L86.6826 0Z" fill="black"/>
<path d="M92.7302 0L92.7302 39L93.7382 39L93.7382 -2.40975e-08L92.7302 0Z" fill="black"/>
<path d="M96.762 0L96.762 39L101.802 39L101.802 -1.20487e-07L96.762 0Z" fill="black"/>
<path d="M104.825 0L104.825 39L105.833 39L105.833 -2.40975e-08L104.825 0Z" fill="black"/>
<path d="M111.881 0L111.881 39L112.889 39L112.889 -2.40975e-08L111.881 0Z" fill="black"/>
<path d="M114.905 0L114.905 39L118.937 39L118.937 -9.63898e-08L114.905 0Z" fill="black"/>
<path d="M121.96 0L121.96 45L123.976 45L123.976 -4.8195e-08L121.96 0Z" fill="black"/>
<path d="M128.008 0L128.008 45L129.016 45L129.016 -2.40975e-08L128.008 0Z" fill="black"/>
<path d="M134.056 0L134.056 39L135.064 39L135.064 -2.40975e-08L134.056 0Z" fill="black"/>
<path d="M136.072 0L136.072 39L138.087 39L138.087 -4.81949e-08L136.072 0Z" fill="black"/>
<path d="M140.103 0L140.103 39L142.119 39L142.119 -4.81949e-08L140.103 0Z" fill="black"/>
<path d="M146.151 0L146.151 39L147.159 39L147.159 -2.40975e-08L146.151 0Z" fill="black"/>
<path d="M150.183 0L150.183 39L154.214 39L154.214 -9.63898e-08L150.183 0Z" fill="black"/>
<path d="M158.246 0L158.246 39L159.254 39L159.254 -2.40975e-08L158.246 0Z" fill="black"/>
<path d="M163.286 0L163.286 39L165.302 39L165.302 -4.81949e-08L163.286 0Z" fill="black"/>
<path d="M168.325 0L168.325 39L172.357 39L172.357 -9.63898e-08L168.325 0Z" fill="black"/>
<path d="M175.381 0L175.381 39L177.397 39L177.397 -4.81949e-08L175.381 0Z" fill="black"/>
<path d="M180.421 0L180.421 39L181.429 39L181.429 -2.40975e-08L180.421 0Z" fill="black"/>
<path d="M187.476 0L187.476 39L188.484 39L188.484 -2.40975e-08L187.476 0Z" fill="black"/>
<path d="M195.54 0L195.54 39L198.564 39L198.564 -7.22924e-08L195.54 0Z" fill="black"/>
<path d="M199.572 0L199.572 39L200.579 39L200.579 -2.40975e-08L199.572 0Z" fill="black"/>
<path d="M206.627 0L206.627 39L207.635 39L207.635 -2.40975e-08L206.627 0Z" fill="black"/>
<path d="M210.659 0L210.659 39L213.683 39L213.683 -7.22924e-08L210.659 0Z" fill="black"/>
<path d="M216.706 0L216.706 39L218.722 39L218.722 -4.81949e-08L216.706 0Z" fill="black"/>
<path d="M222.754 0L222.754 39L224.77 39L224.77 -4.81949e-08L222.754 0Z" fill="black"/>
<path d="M227.794 0L227.794 39L230.818 39L230.818 -7.22924e-08L227.794 0Z" fill="black"/>
<path d="M234.849 0L234.849 39L235.857 39L235.857 -2.40975e-08L234.849 0Z" fill="black"/>
<path d="M240.897 0L240.897 39L244.928 39L244.928 -9.63898e-08L240.897 0Z" fill="black"/>
<path d="M246.944 0L246.944 45L247.952 45L247.952 -2.40975e-08L246.944 0Z" fill="black"/>
<path d="M252.992 0L252.992 45L254 45L254 -2.40975e-08L252.992 0Z" fill="black"/>
<path d="M0 44.9187L-1.3861e-08 44.6022L0.420545 44.1858C1.40883 43.2572 1.8546 42.7617 1.85881 42.1871C1.86958 42.0853 1.85712 41.9824 1.82234 41.886C1.78755 41.7897 1.73134 41.7023 1.65786 41.6303C1.58438 41.5583 1.4955 41.5037 1.3978 41.4703C1.30011 41.4369 1.19608 41.4257 1.09342 41.4375C0.783298 41.4449 0.485638 41.5599 0.25233 41.7623L0.0883172 41.4C0.393115 41.1459 0.779099 41.0072 1.17753 41.0086C1.33136 40.9949 1.48637 41.0138 1.63227 41.064C1.77817 41.1142 1.91163 41.1944 2.02378 41.2996C2.13594 41.4047 2.22423 41.5323 2.28279 41.6738C2.34136 41.8153 2.36886 41.9676 2.36347 42.1204C2.36347 42.8283 1.84619 43.3988 1.03033 44.1733L0.723339 44.4565L2.45598 44.4565L2.45598 44.8729L0 44.9187Z" fill="black"/>
<path d="M21.2881 43.9484C21.2912 43.7198 21.3667 43.4979 21.5041 43.3141C21.6414 43.1303 21.8336 42.9938 22.0535 42.924C21.8769 42.8573 21.7242 42.7402 21.6149 42.5875C21.5056 42.4348 21.4445 42.2534 21.4395 42.0662C21.4455 41.92 21.4819 41.7765 21.5462 41.6446C21.6105 41.5128 21.7014 41.3955 21.8134 41.2999C21.9253 41.2042 22.0559 41.1324 22.197 41.0887C22.3381 41.045 22.4868 41.0305 22.6338 41.046C22.7711 41.0286 22.9105 41.0396 23.0432 41.0785C23.1759 41.1173 23.299 41.1831 23.4047 41.2716C23.5103 41.3601 23.5961 41.4695 23.6567 41.5927C23.7173 41.7159 23.7514 41.8502 23.7567 41.9871C23.7541 42.1823 23.6921 42.3721 23.5788 42.5319C23.4655 42.6916 23.3062 42.8137 23.1217 42.8824C23.3399 42.9469 23.5317 43.0786 23.6693 43.2582C23.8069 43.4379 23.8832 43.6563 23.8871 43.8818C23.8788 44.0416 23.8378 44.1981 23.7664 44.3416C23.6951 44.4852 23.595 44.6129 23.4723 44.7169C23.3495 44.8209 23.2066 44.8991 23.0524 44.9467C22.8981 44.9942 22.7357 45.0102 22.575 44.9936C21.7843 44.9853 21.2881 44.5064 21.2881 43.9484ZM23.3656 43.9234C23.3656 43.4612 23.0418 43.2363 22.5245 43.0906C22.3355 43.1237 22.1636 43.2199 22.0374 43.363C21.9112 43.5062 21.8382 43.6877 21.8306 43.8776C21.8273 43.9774 21.8453 44.0768 21.8836 44.1693C21.9218 44.2617 21.9793 44.345 22.0524 44.4139C22.1255 44.4827 22.2125 44.5354 22.3076 44.5686C22.4027 44.6018 22.5039 44.6146 22.6044 44.6064C22.7005 44.615 22.7974 44.6038 22.889 44.5735C22.9805 44.5431 23.0647 44.4943 23.1362 44.4302C23.2078 44.366 23.2651 44.2878 23.3046 44.2006C23.344 44.1134 23.3648 44.019 23.3656 43.9234ZM21.9273 42.0121C21.9273 42.3952 22.2217 42.5992 22.6675 42.72C22.8278 42.6823 22.9714 42.5942 23.0769 42.4688C23.1823 42.3434 23.2437 42.1876 23.252 42.0246C23.2573 41.9394 23.2438 41.8541 23.2126 41.7746C23.1814 41.695 23.1332 41.6231 23.0712 41.5638C23.0093 41.5044 22.9351 41.4591 22.8538 41.4308C22.7725 41.4025 22.686 41.392 22.6002 41.4C22.5145 41.3925 22.4282 41.4027 22.3468 41.4301C22.2654 41.4575 22.1906 41.5013 22.1273 41.5589C22.0639 41.6166 22.0134 41.6866 21.979 41.7647C21.9446 41.8427 21.927 41.927 21.9273 42.0121Z" fill="black"/>
<path d="M27.7136 44.5522C27.8535 44.5656 27.9943 44.5656 28.1342 44.5522C28.4361 44.5163 28.7188 44.3865 28.9416 44.1815C29.2276 43.9129 29.4092 43.5533 29.4547 43.1655L29.4336 43.1655C29.3244 43.299 29.1858 43.406 29.0283 43.4782C28.8708 43.5504 28.6987 43.5859 28.5253 43.5819C28.3711 43.585 28.218 43.5566 28.0755 43.4983C27.933 43.4401 27.8042 43.3533 27.6972 43.2434C27.5902 43.1335 27.5073 43.003 27.4537 42.8599C27.4 42.7168 27.3769 42.5642 27.3856 42.4118C27.3788 42.2361 27.4078 42.0608 27.4708 41.8964C27.5338 41.732 27.6296 41.5818 27.7524 41.4548C27.8752 41.3278 28.0225 41.2265 28.1856 41.157C28.3487 41.0874 28.5243 41.0511 28.7019 41.0501C29.4925 41.0501 29.9635 41.6872 29.9635 42.6616C29.9817 42.9898 29.9321 43.3182 29.8179 43.6268C29.7037 43.9353 29.5271 44.2176 29.2991 44.4564C28.9916 44.7444 28.5971 44.9243 28.1762 44.9686C28.0179 44.9951 27.8572 45.0049 27.6968 44.9977L27.7136 44.5522ZM27.9029 42.3535C27.8883 42.4578 27.8967 42.5639 27.9274 42.6647C27.958 42.7655 28.0102 42.8586 28.0804 42.9376C28.1507 43.0167 28.2373 43.0798 28.3344 43.1227C28.4314 43.1656 28.5367 43.1873 28.643 43.1863C28.7962 43.1922 28.948 43.1565 29.0822 43.0831C29.2163 43.0097 29.3277 42.9014 29.4042 42.7699C29.4394 42.7138 29.457 42.6486 29.4547 42.5825C29.4547 41.9288 29.2107 41.4291 28.664 41.4291C28.2183 41.4249 27.9029 41.7997 27.9029 42.3535Z" fill="black"/>
<path d="M32.8952 44.3229C33.1499 44.4738 33.4396 44.557 33.7363 44.5644C34.4049 44.5644 34.6152 44.148 34.6068 43.8232C34.6068 43.2902 34.1148 43.0612 33.6101 43.0612L33.3199 43.0612L33.3199 42.6697L33.6101 42.6697C33.9886 42.6697 34.4722 42.4782 34.4722 42.0243C34.4722 41.7162 34.2746 41.4497 33.7952 41.4497C33.5182 41.457 33.2494 41.5438 33.0214 41.6995L32.8868 41.3247C33.187 41.1311 33.5378 41.0284 33.8961 41.0291C34.6573 41.0291 35.0021 41.4788 35.0021 41.941C34.998 42.1475 34.926 42.3471 34.7969 42.5094C34.6679 42.6717 34.489 42.788 34.2872 42.8405C34.5219 42.8798 34.7351 43 34.889 43.1798C35.0429 43.3596 35.1276 43.5875 35.1283 43.8232C35.1283 44.4353 34.6447 44.9725 33.7195 44.9725C33.3666 44.9767 33.0193 44.886 32.7144 44.7102L32.8952 44.3229Z" fill="black"/>
<path d="M40.6414 41.0963L40.6414 41.4377L38.9593 44.9189L38.4168 44.9189L40.0989 41.5377L38.2107 41.5377L38.2107 41.1213L40.6414 41.0963Z" fill="black"/>
<path d="M43.4927 44.9189L43.4927 44.6025L43.9132 44.1861C44.8973 43.2575 45.3431 42.762 45.3515 42.1873C45.3623 42.0855 45.3498 41.9826 45.315 41.8863C45.2802 41.7899 45.224 41.7025 45.1505 41.6305C45.0771 41.5586 44.9882 41.5039 44.8905 41.4705C44.7928 41.4372 44.6888 41.4259 44.5861 41.4377C44.283 41.4489 43.9933 41.5637 43.766 41.7626L43.5978 41.4003C43.9037 41.1453 44.2914 41.0065 44.6912 41.0088C44.8449 40.9951 44.9997 41.014 45.1454 41.0642C45.2911 41.1144 45.4243 41.1948 45.5361 41.3C45.648 41.4052 45.7359 41.5328 45.794 41.6744C45.852 41.8159 45.879 41.968 45.873 42.1207C45.873 42.8286 45.3557 43.399 44.544 44.1735L44.2328 44.4567L45.9697 44.4567L45.9697 44.8731L43.4927 44.9189Z" fill="black"/>
<path d="M51.0624 41.4579C50.9301 41.4529 50.7977 41.4612 50.6671 41.4828C50.3233 41.5302 50.0051 41.6892 49.7624 41.9349C49.5196 42.1805 49.366 42.499 49.3256 42.8403C49.4806 42.6439 49.6952 42.5018 49.9379 42.435C50.1805 42.3682 50.4383 42.3801 50.6736 42.4691C50.9088 42.5581 51.1091 42.7194 51.2449 42.9294C51.3807 43.1393 51.445 43.3869 51.4283 43.6357C51.4379 43.807 51.4127 43.9785 51.3539 44.1399C51.2952 44.3013 51.2043 44.4494 51.0866 44.5753C50.9688 44.7012 50.8267 44.8024 50.6687 44.8727C50.5106 44.9431 50.3399 44.9812 50.1667 44.9849C49.3256 44.9849 48.7999 44.3477 48.7999 43.3525C48.7788 42.7152 49.0131 42.0955 49.4517 41.6286C49.7906 41.3122 50.225 41.1148 50.6881 41.0664C50.8147 41.0464 50.9427 41.0366 51.0708 41.0373L51.0624 41.4579ZM50.911 43.6648C50.9256 43.554 50.9158 43.4413 50.8823 43.3346C50.8488 43.2279 50.7923 43.1296 50.7168 43.0465C50.6413 42.9634 50.5485 42.8975 50.4448 42.8533C50.3412 42.8091 50.229 42.7876 50.1162 42.7904C49.9595 42.792 49.8065 42.8369 49.6742 42.92C49.542 43.0032 49.4358 43.1212 49.3676 43.2609C49.3261 43.33 49.3056 43.4096 49.3088 43.49C49.3088 44.1187 49.6116 44.5851 50.1499 44.5851C50.6082 44.5851 50.911 44.2103 50.911 43.6648Z" fill="black"/>
<path d="M55.3521 41.5793L54.6835 41.9374L54.5825 41.5418L55.4236 41.0963L55.8442 41.0963L55.8442 44.9189L55.3395 44.9189L55.3521 41.5793Z" fill="black"/>
<path d="M92.9614 44.9189L92.9614 44.6025L93.382 44.1861C94.366 43.2575 94.8118 42.762 94.8202 42.1873C94.8303 42.0853 94.8172 41.9824 94.7819 41.886C94.7466 41.7897 94.69 41.7024 94.6162 41.6305C94.5424 41.5586 94.4533 41.504 94.3555 41.4707C94.2576 41.4373 94.1535 41.4261 94.0506 41.4377C93.749 41.4499 93.4609 41.5646 93.2348 41.7626L93.0666 41.4003C93.3725 41.1453 93.7601 41.0065 94.16 41.0088C94.3136 40.9951 94.4685 41.014 94.6142 41.0642C94.7599 41.1144 94.8931 41.1948 95.0049 41.3C95.1167 41.4052 95.2046 41.5328 95.2627 41.6744C95.3208 41.8159 95.3477 41.968 95.3417 42.1207C95.3417 42.8286 94.8244 43.399 94.0128 44.1735L93.7016 44.4567L95.4384 44.4567L95.4384 44.8731L92.9614 44.9189Z" fill="black"/>
<path d="M100.847 41.0963L100.847 41.4377L99.1643 44.9189L98.6218 44.9189L100.304 41.5377L98.4158 41.5377L98.4158 41.1213L100.847 41.0963Z" fill="black"/>
<path d="M103.811 44.3229C104.066 44.474 104.356 44.5571 104.652 44.5644C105.325 44.5644 105.536 44.148 105.527 43.8232C105.527 43.2902 105.035 43.0612 104.531 43.0612L104.24 43.0612L104.24 42.6697L104.531 42.6697C104.909 42.6697 105.372 42.4782 105.372 42.0243C105.372 41.7162 105.174 41.4497 104.695 41.4497C104.417 41.4563 104.148 41.5431 103.921 41.6995L103.782 41.3247C104.084 41.1312 104.436 41.0285 104.795 41.0291C105.552 41.0291 105.897 41.4788 105.897 41.941C105.894 42.1472 105.823 42.3467 105.695 42.5091C105.566 42.6715 105.388 42.7878 105.187 42.8405C105.425 42.8753 105.643 42.9935 105.801 43.1738C105.96 43.3541 106.047 43.5844 106.049 43.8232C106.049 44.4353 105.565 44.9725 104.64 44.9725C104.287 44.9767 103.94 44.886 103.635 44.7102L103.811 44.3229Z" fill="black"/>
<path d="M111.251 41.4579C111.12 41.453 110.989 41.4613 110.86 41.4828C110.516 41.5302 110.198 41.6892 109.955 41.9349C109.712 42.1805 109.559 42.499 109.518 42.8403C109.674 42.6439 109.888 42.5018 110.131 42.435C110.373 42.3682 110.631 42.3801 110.866 42.4691C111.102 42.5581 111.302 42.7194 111.438 42.9294C111.574 43.1393 111.638 43.3869 111.621 43.6357C111.63 43.8069 111.605 43.9781 111.546 44.1393C111.487 44.3005 111.396 44.4483 111.278 44.574C111.16 44.6998 111.019 44.801 110.861 44.8716C110.703 44.9421 110.533 44.9806 110.36 44.9849C109.518 44.9849 108.993 44.3477 108.993 43.3525C108.972 42.7152 109.206 42.0955 109.645 41.6286C109.982 41.3107 110.417 41.1129 110.881 41.0664C111.006 41.0465 111.133 41.0368 111.26 41.0373L111.251 41.4579ZM111.104 43.6648C111.119 43.554 111.109 43.4413 111.075 43.3346C111.042 43.2279 110.985 43.1296 110.91 43.0465C110.834 42.9634 110.741 42.8975 110.638 42.8533C110.534 42.8091 110.422 42.7876 110.309 42.7904C110.152 42.792 109.999 42.8369 109.867 42.92C109.735 43.0032 109.629 43.1212 109.561 43.2609C109.519 43.33 109.498 43.4096 109.502 43.49C109.502 44.1187 109.804 44.5851 110.343 44.5851C110.801 44.5851 111.104 44.2103 111.104 43.6648Z" fill="black"/>
<path d="M115.566 41.5793L114.897 41.9374L114.796 41.5418L115.637 41.0963L116.083 41.0963L116.083 44.9189L115.566 44.9189L115.566 41.5793Z" fill="black"/>
<path d="M122.341 42.9653C122.341 44.2645 121.853 44.9849 120.995 44.9849C120.242 44.9849 119.733 44.2811 119.733 43.0194C119.733 41.7577 120.293 41.0289 121.079 41.0289C121.866 41.0289 122.341 41.7493 122.341 42.9653ZM120.238 43.0235C120.238 44.0188 120.545 44.5851 121.02 44.5851C121.495 44.5851 121.811 43.9646 121.811 42.9902C121.811 42.0158 121.567 41.4287 121.029 41.4287C120.574 41.4287 120.242 41.9825 120.242 43.0235L120.238 43.0235Z" fill="black"/>
</svg>
