<svg width="24" height="24" viewBox="0 0 24 24" fill="none" xmlns="http://www.w3.org/2000/svg">
<g clip-path="url(#clip0_1612_12699)">
<path d="M0.75 12C0.75 13.4774 1.04099 14.9403 1.60636 16.3052C2.17172 17.6701 3.00039 18.9103 4.04505 19.955C5.08971 20.9996 6.3299 21.8283 7.69481 22.3936C9.05972 22.959 10.5226 23.25 12 23.25C13.4774 23.25 14.9403 22.959 16.3052 22.3936C17.6701 21.8283 18.9103 20.9996 19.955 19.955C20.9996 18.9103 21.8283 17.6701 22.3936 16.3052C22.959 14.9403 23.25 13.4774 23.25 12C23.25 10.5226 22.959 9.05972 22.3936 7.69481C21.8283 6.3299 20.9996 5.08971 19.955 4.04505C18.9103 3.00039 17.6701 2.17172 16.3052 1.60636C14.9403 1.04099 13.4774 0.75 12 0.75C10.5226 0.75 9.05972 1.04099 7.69481 1.60636C6.3299 2.17172 5.08971 3.00039 4.04505 4.04505C3.00039 5.08971 2.17172 6.3299 1.60636 7.69481C1.04099 9.05972 0.75 10.5226 0.75 12Z" stroke="white" stroke-linecap="round" stroke-linejoin="round"/>
<path d="M3.77393 19.6753C5.14493 15.5183 9.33893 6.48425 20.2999 4.40625" stroke="white" stroke-linecap="round" stroke-linejoin="round"/>
<path d="M3.6001 4.51953C8.0841 6.15253 16.4721 10.5995 18.2311 21.3795" stroke="white" stroke-linecap="round" stroke-linejoin="round"/>
<path d="M10.5239 0.847656C10.5815 2.07133 10.3682 3.29262 9.89899 4.42425C9.42982 5.55588 8.71646 6.56989 7.8099 7.39381C6.90334 8.21773 5.82597 8.83121 4.65478 9.19041C3.4836 9.5496 2.24752 9.64564 1.03491 9.47166" stroke="white" stroke-linecap="round" stroke-linejoin="round"/>
<path d="M11.7911 23.2481C7.12107 15.7581 15.8701 7.17009 23.2481 11.7911" stroke="white" stroke-linecap="round" stroke-linejoin="round"/>
</g>
<defs>
<clipPath id="clip0_1612_12699">
<rect width="24" height="24" fill="white"/>
</clipPath>
</defs>
</svg>
