<svg width="22" height="24" viewBox="0 0 22 24" fill="none" xmlns="http://www.w3.org/2000/svg">
<path fill-rule="evenodd" clip-rule="evenodd" d="M3.58846 0.0322266C3.08144 0.0322266 2.58291 0.161462 2.13991 0.407566C1.68881 0.637519 1.30805 0.985102 1.03801 1.41373C0.764088 1.84852 0.614578 2.35009 0.605724 2.86389L0.605596 21.153L0.605724 21.1677C0.614578 21.6815 0.764088 22.1831 1.03801 22.6178C1.30805 23.0466 1.68881 23.3941 2.13991 23.6241C2.58291 23.8701 3.08144 23.9994 3.58846 23.9994C4.10266 23.9994 4.60813 23.8665 5.05582 23.6135C5.06568 23.608 5.07541 23.6022 5.08503 23.5962L19.8789 14.4463C20.3276 14.2202 20.7062 13.8757 20.974 13.4497C21.2502 13.0099 21.3969 12.501 21.3969 11.9815C21.3969 11.4621 21.2502 10.9531 20.974 10.5133C20.7061 10.0869 20.3267 9.74214 19.8776 9.51606L5.0826 0.433884C5.07377 0.428467 5.06484 0.423209 5.05582 0.418114C4.60813 0.165156 4.10266 0.0322266 3.58846 0.0322266Z" fill="white"/>
</svg>
