<svg width="24" height="24" viewBox="0 0 24 24" fill="none" xmlns="http://www.w3.org/2000/svg">
<path d="M0.857422 23.1426L0.857422 0.856864" stroke="white" stroke-width="1.5" stroke-linecap="round" stroke-linejoin="round"/>
<path d="M23.1088 4.00951C23.1096 3.70111 23.0273 3.3982 22.8704 3.13265C22.7135 2.86711 22.4879 2.64888 22.2174 2.50094C21.9567 2.35043 21.6611 2.27123 21.3602 2.27123C21.0593 2.27123 20.7637 2.35043 20.5031 2.50094L8.17735 10.558C7.93675 10.7134 7.73892 10.9266 7.60195 11.1782C7.46498 11.4297 7.3932 11.7116 7.3932 11.998C7.3932 12.2844 7.46498 12.5663 7.60195 12.8178C7.73892 13.0694 7.93675 13.2826 8.17735 13.438L20.5374 21.4266C20.798 21.577 21.0936 21.6562 21.3945 21.6562C21.6954 21.6562 21.991 21.577 22.2516 21.4266C22.5222 21.2786 22.7478 21.0603 22.9047 20.7948C23.0615 20.5293 23.1439 20.2264 23.1431 19.918L23.1088 4.00951Z" stroke="white" stroke-width="1.5" stroke-linecap="round" stroke-linejoin="round"/>
</svg>
