<svg width="16" height="17" viewBox="0 0 16 17" fill="none" xmlns="http://www.w3.org/2000/svg">
<g clip-path="url(#clip0_2824_3135)">
<path d="M6.05684 5.43425C6.34568 5.1449 6.50791 4.75276 6.50791 4.34392C6.50791 3.93507 6.34568 3.54294 6.05684 3.25358L4.42084 1.61958C4.13166 1.33042 3.73946 1.16797 3.33051 1.16797C2.92156 1.16797 2.52935 1.33042 2.24018 1.61958L1.34351 2.51692C0.966238 2.89359 0.730955 3.38922 0.677607 3.91966C0.624259 4.45011 0.756134 4.98266 1.05084 5.42692C3.69144 9.40151 7.09892 12.809 11.0735 15.4496C11.5179 15.7439 12.0504 15.8757 12.5808 15.8226C13.1111 15.7695 13.6069 15.5348 13.9842 15.1583L14.8808 14.2609C15.0241 14.1178 15.1377 13.9478 15.2153 13.7607C15.2928 13.5736 15.3327 13.3731 15.3327 13.1706C15.3327 12.9681 15.2928 12.7675 15.2153 12.5805C15.1377 12.3934 15.0241 12.2234 14.8808 12.0803L13.2455 10.4449C13.1024 10.3017 12.9324 10.188 12.7453 10.1105C12.5582 10.0329 12.3577 9.99303 12.1552 9.99303C11.9527 9.99303 11.7521 10.0329 11.565 10.1105C11.378 10.188 11.208 10.3017 11.0648 10.4449L10.5195 10.9903C8.69208 9.48638 7.01489 7.80874 5.51151 5.98092L6.05684 5.43425Z" stroke="black" stroke-width="0.5" stroke-linecap="round" stroke-linejoin="round"/>
</g>
<defs>
<clipPath id="clip0_2824_3135">
<rect width="16" height="16" fill="white" transform="translate(0 0.5)"/>
</clipPath>
</defs>
</svg>
