<svg width="23" height="24" viewBox="0 0 23 24" fill="none" xmlns="http://www.w3.org/2000/svg">
<path d="M2.27387 22.7946H20.7264C22.0008 22.7946 22.8296 21.4535 22.2596 20.3137L13.033 1.8612C12.4013 0.597695 10.5982 0.597697 9.9664 1.86122L0.740566 20.3137C0.170652 21.4535 0.999502 22.7946 2.27387 22.7946Z" stroke="white" stroke-linecap="round" stroke-linejoin="round"/>
<path d="M11.4999 10.0776C6.97516 10.0776 5.07544 14.0134 5.07544 14.0951C5.07544 14.1767 6.97516 18.1125 11.4999 18.1125C16.0247 18.1125 17.9244 14.1767 17.9244 14.0951C17.9244 14.0134 16.0247 10.0776 11.4999 10.0776Z" stroke="white" stroke-linecap="round" stroke-linejoin="round"/>
<path d="M10.6445 14.0947C10.6445 14.322 10.7348 14.54 10.8956 14.7008C11.0563 14.8615 11.2743 14.9518 11.5017 14.9518C11.729 14.9518 11.947 14.8615 12.1078 14.7008C12.2685 14.54 12.3588 14.322 12.3588 14.0947C12.3588 13.9821 12.3366 13.8707 12.2936 13.7667C12.2505 13.6627 12.1874 13.5682 12.1078 13.4886C12.0282 13.409 11.9337 13.3459 11.8297 13.3028C11.7257 13.2597 11.6142 13.2375 11.5017 13.2375C11.3891 13.2375 11.2777 13.2597 11.1737 13.3028C11.0697 13.3459 10.9752 13.409 10.8956 13.4886C10.816 13.5682 10.7529 13.6627 10.7098 13.7667C10.6667 13.8707 10.6445 13.9821 10.6445 14.0947Z" stroke="white" stroke-linejoin="round"/>
</svg>
