<svg width="32" height="32" viewBox="0 0 32 32" fill="none" xmlns="http://www.w3.org/2000/svg">
<path d="M20.333 3H24.333" stroke="white" stroke-linecap="round" stroke-linejoin="round"/>
<path d="M22.333 1V5" stroke="white" stroke-linecap="round" stroke-linejoin="round"/>
<path d="M24.333 10H28.333" stroke="white" stroke-linecap="round" stroke-linejoin="round"/>
<path d="M26.333 8V12" stroke="white" stroke-linecap="round" stroke-linejoin="round"/>
<path d="M4.03076 8.00269C4.03076 8.79062 4.18596 9.57083 4.48748 10.2988C4.78901 11.0267 5.23097 11.6882 5.78812 12.2453C6.34527 12.8025 7.00671 13.2444 7.73466 13.546C8.46261 13.8475 9.24283 14.0027 10.0308 14.0027C10.8187 14.0027 11.5989 13.8475 12.3269 13.546C13.0548 13.2444 13.7163 12.8025 14.2734 12.2453C14.8306 11.6882 15.2725 11.0267 15.574 10.2988C15.8756 9.57083 16.0308 8.79062 16.0308 8.00269C16.0308 7.21475 15.8756 6.43454 15.574 5.70658C15.2725 4.97863 14.8306 4.3172 14.2734 3.76004C13.7163 3.20289 13.0548 2.76094 12.3269 2.45941C11.5989 2.15788 10.8187 2.00269 10.0308 2.00269C9.24283 2.00269 8.46261 2.15788 7.73466 2.45941C7.00671 2.76094 6.34527 3.20289 5.78812 3.76004C5.23097 4.3172 4.78901 4.97863 4.48748 5.70658C4.18596 6.43454 4.03076 7.21475 4.03076 8.00269Z" stroke="white" stroke-linecap="round" stroke-linejoin="round"/>
<path d="M2.6792 5.65625L17.3779 10.3483" stroke="white" stroke-linecap="round" stroke-linejoin="round"/>
<path d="M12.3994 13.5157L6.59402 26.0624C6.38952 26.5051 6.03027 26.8579 5.58386 27.0544C5.13745 27.2508 4.63464 27.2774 4.17002 27.129L3.72335 26.9864C3.26022 26.8381 2.86696 26.5263 2.61714 26.1091C2.36731 25.6919 2.27804 25.198 2.36602 24.7197L4.89935 11.1304" stroke="white" stroke-linecap="round" stroke-linejoin="round"/>
<path d="M3.94683 27.0547L2.72949 30.8654" stroke="white" stroke-linecap="round" stroke-linejoin="round"/>
<path d="M17.1045 26.8639C17.1045 27.4301 17.3294 27.973 17.7297 28.3734C18.13 28.7737 18.673 28.9986 19.2392 28.9986C19.8053 28.9986 20.3483 28.7737 20.7486 28.3734C21.1489 27.973 21.3738 27.4301 21.3738 26.8639C21.3738 26.2978 21.1489 25.7548 20.7486 25.3545C20.3483 24.9541 19.8053 24.7292 19.2392 24.7292C18.673 24.7292 18.13 24.9541 17.7297 25.3545C17.3294 25.7548 17.1045 26.2978 17.1045 26.8639Z" stroke="white" stroke-linecap="round" stroke-linejoin="round"/>
<path d="M29.3341 24.5657C29.3341 24.9876 29.2089 25.4001 28.9745 25.7509C28.7401 26.1017 28.4069 26.3752 28.0171 26.5367C27.6273 26.6981 27.1984 26.7404 26.7845 26.658C26.3707 26.5757 25.9906 26.3726 25.6922 26.0742C25.3939 25.7758 25.1907 25.3957 25.1084 24.9819C25.0261 24.5681 25.0683 24.1391 25.2298 23.7493C25.3912 23.3595 25.6647 23.0263 26.0155 22.7919C26.3663 22.5575 26.7788 22.4324 27.2007 22.4324C27.7665 22.4324 28.3091 22.6571 28.7092 23.0572C29.1093 23.4573 29.3341 23.9999 29.3341 24.5657Z" stroke="white" stroke-linecap="round" stroke-linejoin="round"/>
<path d="M21.3745 26.8652V18.8652C21.3745 18.5065 21.4873 18.157 21.6969 17.866C21.9065 17.5751 22.2024 17.3574 22.5425 17.2438L27.0865 16.0825C27.3437 15.9968 27.6175 15.9735 27.8854 16.0146C28.1533 16.0557 28.4076 16.1599 28.6273 16.3188C28.8469 16.4776 29.0256 16.6864 29.1486 16.9279C29.2716 17.1694 29.3353 17.4368 29.3345 17.7078V24.5638" stroke="white" stroke-linecap="round" stroke-linejoin="round"/>
</svg>
