<svg width="25" height="24" viewBox="0 0 25 24" fill="none" xmlns="http://www.w3.org/2000/svg">
<path d="M15.75 2.25H18.75" stroke="white" stroke-linecap="round" stroke-linejoin="round"/>
<path d="M17.25 0.75V3.75" stroke="white" stroke-linecap="round" stroke-linejoin="round"/>
<path d="M18.75 7.5H21.75" stroke="white" stroke-linecap="round" stroke-linejoin="round"/>
<path d="M20.25 6V9" stroke="white" stroke-linecap="round" stroke-linejoin="round"/>
<path d="M3.52344 6.00195C3.52344 6.5929 3.63983 7.17806 3.86598 7.72403C4.09213 8.26999 4.42359 8.76607 4.84146 9.18393C5.25932 9.6018 5.7554 9.93327 6.30136 10.1594C6.84733 10.3856 7.43249 10.502 8.02344 10.502C8.61439 10.502 9.19955 10.3856 9.74551 10.1594C10.2915 9.93327 10.7876 9.6018 11.2054 9.18393C11.6233 8.76607 11.9547 8.26999 12.1809 7.72403C12.407 7.17806 12.5234 6.5929 12.5234 6.00195C12.5234 5.411 12.407 4.82584 12.1809 4.27988C11.9547 3.73391 11.6233 3.23784 11.2054 2.81997C10.7876 2.40211 10.2915 2.07064 9.74551 1.8445C9.19955 1.61835 8.61439 1.50195 8.02344 1.50195C7.43249 1.50195 6.84733 1.61835 6.30136 1.8445C5.7554 2.07064 5.25932 2.40211 4.84146 2.81997C4.42359 3.23784 4.09213 3.73391 3.86598 4.27988C3.63983 4.82584 3.52344 5.411 3.52344 6.00195Z" stroke="white" stroke-linecap="round" stroke-linejoin="round"/>
<path d="M2.50977 4.24219L13.5338 7.76119" stroke="white" stroke-linecap="round" stroke-linejoin="round"/>
<path d="M9.79976 10.1367L5.44576 19.5467C5.29238 19.8787 5.02295 20.1433 4.68814 20.2907C4.35333 20.438 3.97622 20.4579 3.62776 20.3467L3.29276 20.2397C2.94541 20.1285 2.65047 19.8946 2.4631 19.5817C2.27573 19.2688 2.20877 18.8983 2.27476 18.5397L4.17476 8.34766" stroke="white" stroke-linecap="round" stroke-linejoin="round"/>
<path d="M3.45987 20.291L2.54688 23.149" stroke="white" stroke-linecap="round" stroke-linejoin="round"/>
<path d="M13.3281 20.1479C13.3281 20.5725 13.4968 20.9797 13.797 21.28C14.0973 21.5802 14.5045 21.7489 14.9291 21.7489C15.3537 21.7489 15.761 21.5802 16.0612 21.28C16.3614 20.9797 16.5301 20.5725 16.5301 20.1479C16.5301 19.7233 16.3614 19.316 16.0612 19.0158C15.761 18.7156 15.3537 18.5469 14.9291 18.5469C14.5045 18.5469 14.0973 18.7156 13.797 19.0158C13.4968 19.316 13.3281 19.7233 13.3281 20.1479Z" stroke="white" stroke-linecap="round" stroke-linejoin="round"/>
<path d="M22.5008 18.4242C22.5008 18.7407 22.4069 19.05 22.2311 19.3131C22.0553 19.5762 21.8054 19.7813 21.5131 19.9024C21.2207 20.0235 20.899 20.0552 20.5886 19.9935C20.2783 19.9317 19.9932 19.7794 19.7694 19.5556C19.5456 19.3318 19.3933 19.0467 19.3315 18.7364C19.2698 18.426 19.3015 18.1043 19.4226 17.8119C19.5437 17.5196 19.7488 17.2697 20.0119 17.0939C20.275 16.9181 20.5843 16.8242 20.9008 16.8242C21.3251 16.8242 21.7321 16.9928 22.0322 17.2928C22.3322 17.5929 22.5008 17.9999 22.5008 18.4242Z" stroke="white" stroke-linecap="round" stroke-linejoin="round"/>
<path d="M16.5312 20.1488V14.1488C16.5313 13.8798 16.6158 13.6177 16.7731 13.3995C16.9303 13.1812 17.1521 13.018 17.4073 12.9328L20.8152 12.0618C21.0081 11.9975 21.2135 11.9801 21.4144 12.0109C21.6154 12.0417 21.8061 12.1199 21.9708 12.239C22.1355 12.3581 22.2696 12.5147 22.3618 12.6959C22.454 12.877 22.5018 13.0775 22.5013 13.2808V18.4228" stroke="white" stroke-linecap="round" stroke-linejoin="round"/>
</svg>
