<svg width="16" height="16" viewBox="0 0 16 16" fill="none" xmlns="http://www.w3.org/2000/svg">
<path d="M2.85718 2.85718H14.2857C14.9169 2.85718 15.4286 3.36886 15.4286 4.00003V12C15.4286 12.6312 14.9169 13.1429 14.2857 13.1429H13.1429" stroke="white" stroke-linecap="round" stroke-linejoin="round"/>
<path d="M0.571411 4V12C0.571411 12.6312 1.08309 13.1429 1.71427 13.1429H10.2857" stroke="white" stroke-linecap="round" stroke-linejoin="round"/>
<path d="M6.38379 6.38383C6.79741 5.9702 7.36884 5.71436 8.00003 5.71436C9.26239 5.71436 10.2857 6.7377 10.2857 8.00007C10.2857 8.63126 10.0299 9.20269 9.61627 9.61632" stroke="white" stroke-linecap="round" stroke-linejoin="round"/>
<path d="M5.73914 8.33838C5.88978 9.35391 6.70837 10.1516 7.73391 10.2705" stroke="white" stroke-linecap="round" stroke-linejoin="round"/>
<path d="M15.4286 15.4287L0.571411 0.571533" stroke="white" stroke-linecap="round" stroke-linejoin="round"/>
</svg>
