<svg width="32" height="32" viewBox="0 0 32 32" fill="none" xmlns="http://www.w3.org/2000/svg">
<rect width="32" height="32" rx="16" fill="white" fill-opacity="0.1"/>
<rect x="0.346491" y="0.346491" width="31.307" height="31.307" rx="15.6535" stroke="white" stroke-opacity="0.1" stroke-width="0.692982"/>
<path d="M15.9987 9.35938C12.332 9.35938 9.33203 12.3527 9.33203 16.0394C9.33203 19.3727 11.772 22.1394 14.9587 22.6394V17.9727H13.2654V16.0394H14.9587V14.566C14.9587 12.8927 15.952 11.9727 17.4787 11.9727C18.2054 11.9727 18.9654 12.0994 18.9654 12.0994V13.746H18.1254C17.2987 13.746 17.0387 14.2594 17.0387 14.786V16.0394H18.892L18.592 17.9727H17.0387V22.6394C18.6097 22.3913 20.0402 21.5897 21.072 20.3794C22.1038 19.1691 22.6689 17.6298 22.6654 16.0394C22.6654 12.3527 19.6654 9.35938 15.9987 9.35938Z" fill="white"/>
</svg>
