<svg width="24" height="24" viewBox="0 0 24 24" fill="none" xmlns="http://www.w3.org/2000/svg">
<path d="M12.0001 6.60127L13.2289 5.19487C13.9822 4.17496 15.0726 3.45516 16.3065 3.16338C17.5404 2.87161 18.8378 3.02676 19.9681 3.60127C20.8317 4.0772 21.5507 4.77757 22.0492 5.62837C22.5477 6.47917 22.8071 7.44881 22.8001 8.43486C22.8007 9.23869 22.6258 10.033 22.2875 10.7621C21.9493 11.4913 21.4558 12.1378 20.8417 12.6565L12.5953 20.7493C12.5179 20.8306 12.4249 20.8954 12.3217 20.9396C12.2186 20.9838 12.1075 21.0067 11.9953 21.0067C11.8831 21.0067 11.772 20.9838 11.6688 20.9396C11.5657 20.8954 11.4726 20.8306 11.3953 20.7493L3.15849 12.6565C2.54437 12.1378 2.05093 11.4913 1.71266 10.7621C1.37439 10.033 1.19946 9.23869 1.20009 8.43486C1.19305 7.44881 1.45248 6.47917 1.95096 5.62837C2.44945 4.77757 3.16848 4.0772 4.03209 3.60127C5.16159 3.02601 6.45842 2.86973 7.69224 3.16017C8.92607 3.45061 10.017 4.16897 10.7713 5.18767L12.0001 6.60127Z" stroke="#FF7D7D" stroke-width="1.5" stroke-linecap="round" stroke-linejoin="round"/>
</svg>
