<svg width="17" height="17" viewBox="0 0 17 17" fill="none" xmlns="http://www.w3.org/2000/svg">
<path d="M8.27773 4.50216L9.09693 3.56456C9.59911 2.88463 10.3261 2.40476 11.1487 2.21024C11.9713 2.01572 12.8362 2.11916 13.5897 2.50216C14.1655 2.81945 14.6448 3.28636 14.9771 3.85356C15.3095 4.42076 15.4824 5.06719 15.4777 5.72456C15.4781 6.26044 15.3615 6.78995 15.136 7.27607C14.9105 7.7622 14.5815 8.1932 14.1721 8.53896L8.67453 13.9342C8.62297 13.9884 8.56092 14.0316 8.49216 14.0611C8.42339 14.0906 8.34935 14.1058 8.27453 14.1058C8.19971 14.1058 8.12566 14.0906 8.0569 14.0611C7.98814 14.0316 7.92609 13.9884 7.87453 13.9342L2.38333 8.53896C1.97392 8.1932 1.64496 7.7622 1.41944 7.27607C1.19393 6.78995 1.07731 6.26044 1.07773 5.72456C1.07304 5.06719 1.24599 4.42076 1.57831 3.85356C1.91063 3.28636 2.38999 2.81945 2.96573 2.50216C3.71873 2.11866 4.58328 2.01447 5.40583 2.2081C6.22838 2.40173 6.95567 2.88063 7.45853 3.55976L8.27773 4.50216Z" fill="#FF7D7D"/>
</svg>
