<svg width="24" height="24" viewBox="0 0 24 24" fill="none" xmlns="http://www.w3.org/2000/svg">
<g clip-path="url(#clip0_4856_429)">
<path d="M11.9998 6.60053L13.2286 5.19413C13.9819 4.17423 15.0724 3.45442 16.3063 3.16265C17.5402 2.87088 18.8376 3.02603 19.9678 3.60053C20.8315 4.07647 21.5505 4.77683 22.049 5.62763C22.5475 6.47843 22.8069 7.44808 22.7998 8.43413C22.8005 9.23795 22.6255 10.0322 22.2873 10.7614C21.949 11.4906 21.4556 12.1371 20.8414 12.6557L12.595 20.7485C12.5177 20.8299 12.4246 20.8946 12.3215 20.9389C12.2183 20.9831 12.1073 21.0059 11.995 21.0059C11.8828 21.0059 11.7717 20.9831 11.6686 20.9389C11.5655 20.8946 11.4724 20.8299 11.395 20.7485L3.15825 12.6557C2.54413 12.1371 2.05069 11.4906 1.71242 10.7614C1.37415 10.0322 1.19922 9.23795 1.19985 8.43413C1.19281 7.44808 1.45224 6.47843 1.95072 5.62763C2.4492 4.77683 3.16823 4.07647 4.03185 3.60053C5.16134 3.02528 6.45817 2.869 7.692 3.15944C8.92582 3.44988 10.0168 4.16824 10.771 5.18693L11.9998 6.60053Z" stroke="#4A4A4A" stroke-width="1.125" stroke-linecap="round" stroke-linejoin="round"/>
</g>
<defs>
<clipPath id="clip0_4856_429">
<rect width="24" height="24" fill="white"/>
</clipPath>
</defs>
</svg>
