<svg width="24" height="24" viewBox="0 0 24 24" fill="none" xmlns="http://www.w3.org/2000/svg">
<path d="M11.9998 6.60127L13.2286 5.19487C13.9819 4.17496 15.0724 3.45516 16.3063 3.16338C17.5402 2.87161 18.8376 3.02676 19.9678 3.60127C20.8315 4.0772 21.5505 4.77757 22.049 5.62837C22.5475 6.47917 22.8069 7.44881 22.7998 8.43486C22.8005 9.23869 22.6255 10.033 22.2873 10.7621C21.949 11.4913 21.4556 12.1378 20.8414 12.6565L12.595 20.7493C12.5177 20.8306 12.4246 20.8954 12.3215 20.9396C12.2183 20.9838 12.1073 21.0067 11.995 21.0067C11.8828 21.0067 11.7717 20.9838 11.6686 20.9396C11.5655 20.8954 11.4724 20.8306 11.395 20.7493L3.15825 12.6565C2.54413 12.1378 2.05069 11.4913 1.71242 10.7621C1.37415 10.033 1.19922 9.23869 1.19985 8.43486C1.19281 7.44881 1.45224 6.47917 1.95072 5.62837C2.4492 4.77757 3.16823 4.0772 4.03185 3.60127C5.16134 3.02601 6.45818 2.86973 7.692 3.16017C8.92582 3.45061 10.0168 4.16897 10.771 5.18767L11.9998 6.60127Z" stroke="#FF7D7D" stroke-width="1.5" stroke-linecap="round" stroke-linejoin="round"/>
</svg>
