<svg width="29" height="30" viewBox="0 0 29 30" fill="none" xmlns="http://www.w3.org/2000/svg">
<path fill-rule="evenodd" clip-rule="evenodd" d="M0.0136033 23.7902C-0.0907834 24.4245 0.398617 25.001 1.04144 25.001H5.56372L5.22702 27.1204C5.02604 28.3855 6.00358 29.5306 7.28455 29.5306H10.9652C11.9895 29.5306 12.8618 28.7861 13.0227 27.7746L14.0681 21.2032H18.7938C21.7882 21.2032 24.2445 20.4821 25.9951 18.8796C27.7454 17.2771 28.5729 15.0821 28.5729 12.4335C28.5729 10.196 27.8425 8.3472 26.2714 7.0573C25.8234 6.68338 25.3242 6.37067 24.7776 6.11519C24.6109 4.27548 23.8762 2.84025 22.5735 1.80949C21.0796 0.603819 18.9 0.000982517 16.0347 0.000982517H4.81287C4.30286 0.000982517 3.86785 0.370255 3.78503 0.873496L0.0136033 23.7902ZM9.16043 15.6393H14.6388C17.9449 15.6393 20.4674 14.871 22.2062 13.3343C23.6039 12.0991 24.4398 10.482 24.714 8.48308C24.7918 8.53991 24.8668 8.59852 24.939 8.65884L24.9389 8.65888L24.9468 8.6653C25.9384 9.47815 26.4896 10.6773 26.4896 12.4335C26.4896 14.6214 25.8241 16.2116 24.5883 17.3429C23.3527 18.4741 21.4772 19.1199 18.7938 19.1199H14.0681C13.0439 19.1199 12.1716 19.8644 12.0107 20.8759L10.9652 27.4473H7.28455L9.16043 15.6393Z" fill="white"/>
</svg>
