<svg width="24" height="30" viewBox="0 0 24 30" fill="none" xmlns="http://www.w3.org/2000/svg">
<path d="M6.11655 29.4216C5.55034 29.0268 5.04757 28.5433 4.62739 27.9849C4.16892 27.4065 3.74395 26.7981 3.35371 26.1685C2.43675 24.7693 1.71971 23.2389 1.22292 21.6261C0.624385 19.7497 0.333496 17.9533 0.333496 16.1956C0.333496 14.2342 0.740501 12.5227 1.53296 11.086C2.11953 9.96169 2.99339 9.02099 4.04681 8.36012C5.06433 7.69801 6.24943 7.33572 7.4465 7.31073C7.86547 7.31073 8.32036 7.3732 8.79919 7.49813C9.14634 7.59807 9.56532 7.76047 10.0801 7.96036C10.7384 8.2227 11.0976 8.38511 11.2173 8.42259C11.6003 8.5725 11.9235 8.63496 12.1749 8.63496C12.3665 8.63496 12.6418 8.5725 12.947 8.47256C13.1206 8.41009 13.4498 8.29766 13.9167 8.08528C14.3787 7.91039 14.745 7.76047 15.0359 7.64804C15.4789 7.51062 15.9074 7.38569 16.2929 7.32323C16.7597 7.24827 17.223 7.22329 17.6671 7.26076C18.517 7.32323 19.2951 7.51062 19.9894 7.78546C21.2104 8.29766 22.1956 9.09719 22.9306 10.234C22.6194 10.4339 22.3321 10.6663 22.0628 10.9211C21.4798 11.4583 20.9854 12.0954 20.5904 12.8013C20.0756 13.7632 19.8123 14.8501 19.8194 15.9494C19.8374 17.3024 20.1666 18.4917 20.825 19.5224C21.2882 20.2719 21.9071 20.914 22.6613 21.4412C23.0324 21.7036 23.358 21.8847 23.6668 22.0034C23.5232 22.4719 23.3652 22.9279 23.182 23.3776C22.7666 24.3858 22.2722 25.3515 21.6857 26.2634C21.1685 27.0505 20.7615 27.6376 20.4527 28.0249C19.9715 28.6245 19.507 29.0743 19.0401 29.3954C18.5254 29.7514 17.9209 29.94 17.302 29.94C16.883 29.9588 16.464 29.9026 16.0642 29.7814C15.7171 29.6627 15.3747 29.529 15.0395 29.3779C14.6888 29.2105 14.3261 29.068 13.9562 28.9531C13.5013 28.8282 13.0344 28.7682 12.5628 28.7695C12.084 28.7695 11.6171 28.8319 11.1742 28.9506C10.8031 29.0605 10.444 29.1955 10.0884 29.3566C9.58567 29.5752 9.25647 29.7189 9.06494 29.7814C8.67709 29.9013 8.27966 29.9738 7.87984 30C7.25736 30 6.67798 29.8126 6.10099 29.4378L6.11655 29.4216ZM14.3213 6.36004C13.5073 6.78479 12.734 6.96469 11.9595 6.90472C11.8398 6.09769 11.9595 5.26818 12.2827 4.35996C12.57 3.58541 12.953 2.88582 13.4797 2.26118C14.0304 1.61156 14.6888 1.07437 15.431 0.687099C16.221 0.262347 16.9752 0.0374781 17.6934 0C17.7892 0.849504 17.6934 1.68652 17.3942 2.58599C17.1212 3.38552 16.7142 4.12259 16.1971 4.78471C15.6764 5.43433 15.03 5.97152 14.2985 6.35879L14.3213 6.36004Z" fill="white"/>
</svg>
