<svg xmlns="http://www.w3.org/2000/svg" width="24" height="24" viewBox="0 0 16 16" fill="none">
  <path d="M7.9999 4.40084L8.8191 3.46324C9.32128 2.78331 10.0483 2.30344 10.8709 2.10892C11.6935 1.91441 12.5584 2.01784 13.3119 2.40084C13.8876 2.71814 14.367 3.18504 14.6993 3.75225C15.0316 4.31945 15.2046 4.96588 15.1999 5.62324C15.2003 6.15913 15.0837 6.68863 14.8582 7.17476C14.6327 7.66088 14.3037 8.09188 13.8943 8.43764L8.3967 13.8328C8.34513 13.8871 8.28309 13.9302 8.21432 13.9597C8.14556 13.9892 8.07152 14.0044 7.9967 14.0044C7.92187 14.0044 7.84783 13.9892 7.77907 13.9597C7.71031 13.9302 7.64826 13.8871 7.5967 13.8328L2.1055 8.43764C1.69608 8.09188 1.36712 7.66088 1.14161 7.17476C0.9161 6.68863 0.799478 6.15913 0.799898 5.62324C0.795206 4.96588 0.968157 4.31945 1.30048 3.75225C1.6328 3.18504 2.11215 2.71814 2.6879 2.40084C3.4409 2.01734 4.30545 1.91315 5.128 2.10678C5.95055 2.30041 6.67784 2.77932 7.1807 3.45844L7.9999 4.40084Z" fill="#FF7D7D"/>
</svg>