<svg width="40" height="40" viewBox="0 0 40 40" fill="none" xmlns="http://www.w3.org/2000/svg">
<path d="M36.8008 0H3.41785C1.59375 0 0 1.3125 0 3.11517V36.5714C0 38.3848 1.59375 39.9999 3.41785 39.9999H36.791C38.6249 39.9999 39.9999 38.3749 39.9999 36.5723V3.11517C40.0107 1.3125 38.6249 0 36.8008 0ZM21.9643 31.6964H12.7071L8.99552 9.50356L17.0982 8.73392L19.0625 24.5259C20.8955 21.5393 23.1589 16.8473 23.1589 13.6446C23.1589 11.8928 22.8589 10.6982 22.3901 9.71606L29.7678 8.2232C30.6214 9.63213 31.0053 11.0803 31.0053 12.9169C31.0044 18.7651 26.0125 26.3625 21.9643 31.6964Z" fill="white"/>
</svg>
