<svg width="40" height="40" viewBox="0 0 40 40" fill="none" xmlns="http://www.w3.org/2000/svg">
<g clip-path="url(#clip0_1612_12600)">
<path d="M35.8171 20.3026C35.8171 18.975 35.7094 18.0062 35.4763 17.0015H20.3159V22.9938H29.2147C29.0353 24.4829 28.0665 26.7256 25.9135 28.2326L25.8834 28.4332L30.6768 32.1466L31.0089 32.1797C34.0588 29.3629 35.8171 25.2185 35.8171 20.3026Z" fill="#4285F4"/>
<path d="M20.3154 36.0917C24.6751 36.0917 28.335 34.6564 31.0084 32.1806L25.913 28.2334C24.5495 29.1843 22.7195 29.8481 20.3154 29.8481C16.0454 29.8481 12.4213 27.0314 11.1294 23.1382L10.9401 23.1543L5.95581 27.0116L5.89062 27.1928C8.5459 32.4675 14 36.0917 20.3154 36.0917Z" fill="#34A853"/>
<path d="M11.1296 23.1371C10.7887 22.1324 10.5914 21.0559 10.5914 19.9436C10.5914 18.8311 10.7887 17.7547 11.1116 16.75L11.1026 16.536L6.05589 12.6167L5.89077 12.6952C4.79641 14.8841 4.16846 17.3421 4.16846 19.9436C4.16846 22.545 4.79641 25.0029 5.89077 27.1918L11.1296 23.1371Z" fill="#FBBC05"/>
<path d="M20.3154 10.0418C23.3474 10.0418 25.3927 11.3515 26.5589 12.446L31.116 7.99658C28.3172 5.39511 24.6751 3.79834 20.3154 3.79834C14 3.79834 8.5459 7.42244 5.89062 12.6971L11.1115 16.7519C12.4213 12.8586 16.0454 10.0418 20.3154 10.0418Z" fill="#EB4335"/>
</g>
<g clip-path="url(#clip1_1612_12600)">
<path d="M35.8171 20.3026C35.8171 18.975 35.7094 18.0062 35.4763 17.0015H20.3159V22.9938H29.2147C29.0353 24.4829 28.0665 26.7256 25.9135 28.2326L25.8834 28.4332L30.6768 32.1466L31.0089 32.1797C34.0588 29.3629 35.8171 25.2185 35.8171 20.3026Z" fill="white"/>
<path d="M20.3154 36.0917C24.6751 36.0917 28.335 34.6564 31.0084 32.1806L25.913 28.2334C24.5495 29.1843 22.7195 29.8481 20.3154 29.8481C16.0454 29.8481 12.4213 27.0314 11.1294 23.1382L10.9401 23.1543L5.95581 27.0116L5.89062 27.1928C8.5459 32.4675 14 36.0917 20.3154 36.0917Z" fill="white"/>
<path d="M11.1296 23.1371C10.7887 22.1324 10.5914 21.0559 10.5914 19.9436C10.5914 18.8311 10.7887 17.7547 11.1116 16.75L11.1026 16.536L6.05589 12.6167L5.89077 12.6952C4.79641 14.8841 4.16846 17.3421 4.16846 19.9436C4.16846 22.545 4.79641 25.0029 5.89077 27.1918L11.1296 23.1371Z" fill="white"/>
<path d="M20.3154 10.0418C23.3474 10.0418 25.3927 11.3515 26.5589 12.446L31.116 7.99658C28.3172 5.39511 24.6751 3.79834 20.3154 3.79834C14 3.79834 8.5459 7.42244 5.89062 12.6971L11.1115 16.7519C12.4213 12.8586 16.0454 10.0418 20.3154 10.0418Z" fill="white"/>
</g>
<defs>
<clipPath id="clip0_1612_12600">
<rect width="31.6667" height="32.4055" fill="white" transform="translate(4.16626 3.79834)"/>
</clipPath>
<clipPath id="clip1_1612_12600">
<rect width="31.6667" height="32.4055" fill="white" transform="translate(4.16626 3.79834)"/>
</clipPath>
</defs>
</svg>
