<svg width="24" height="24" viewBox="0 0 24 24" fill="none" xmlns="http://www.w3.org/2000/svg">
<g clip-path="url(#clip0_815_31932)">
<path d="M11.9998 6.60029L13.2286 5.19389C13.9819 4.17398 15.0724 3.45418 16.3063 3.16241C17.5402 2.87063 18.8376 3.02578 19.9678 3.60029C20.8315 4.07622 21.5505 4.77659 22.049 5.62739C22.5475 6.47819 22.8069 7.44783 22.7998 8.43389C22.8005 9.23771 22.6255 10.032 22.2873 10.7612C21.949 11.4903 21.4556 12.1368 20.8414 12.6555L12.595 20.7483C12.5177 20.8296 12.4246 20.8944 12.3215 20.9386C12.2183 20.9829 12.1073 21.0057 11.995 21.0057C11.8828 21.0057 11.7717 20.9829 11.6686 20.9386C11.5655 20.8944 11.4724 20.8296 11.395 20.7483L3.15825 12.6555C2.54413 12.1368 2.05069 11.4903 1.71242 10.7612C1.37415 10.032 1.19922 9.23771 1.19985 8.43389C1.19281 7.44784 1.45224 6.47819 1.95072 5.62739C2.4492 4.77659 3.16823 4.07623 4.03185 3.60029C5.16134 3.02504 6.45817 2.86875 7.692 3.15919C8.92582 3.44963 10.0168 4.168 10.771 5.18669L11.9998 6.60029Z" stroke="white" stroke-linecap="round" stroke-linejoin="round"/>
</g>
<defs>
<clipPath id="clip0_815_31932">
<rect width="24" height="24" fill="white"/>
</clipPath>
</defs>
</svg>
