<svg width="51" height="38" viewBox="0 0 51 38" fill="none" xmlns="http://www.w3.org/2000/svg">
<g id="Frame 1000004256">
<g id="Group">
<path id="Vector" d="M28.9587 37.9998L49.7695 37.9998C50.2671 37.9998 50.6743 37.5926 50.6743 37.0949L50.6743 16.2842C50.6743 15.7865 50.2671 15.3794 49.7695 15.3794L38.0069 15.3794L38.0069 14.4745C38.0069 9.98665 41.6623 6.33119 46.1502 6.33119L49.7695 6.33119C50.2671 6.33119 50.6743 5.92402 50.6743 5.42638L50.6743 0.902294C50.6743 0.404644 50.2671 -0.00252148 49.7695 -0.00252144L44.3406 -0.00252096C35.3558 -0.00252018 28.0539 7.30839 28.0539 16.2842L28.0539 37.0949C28.0539 37.5926 28.4611 37.9998 28.9587 37.9998Z" fill="white" fill-opacity="0.2"/>
</g>
<g id="Group_2">
<path id="Vector_2" d="M0.909288 37.9998L21.7201 37.9998C22.2177 37.9998 22.6249 37.5926 22.6249 37.0949L22.6249 16.2842C22.6249 15.7865 22.2177 15.3794 21.7201 15.3794L9.95745 15.3794L9.95745 14.4745C9.95745 9.98665 13.6129 6.33119 18.1008 6.33119L21.7201 6.33119C22.2177 6.33119 22.6249 5.92402 22.6249 5.42638L22.6249 0.902294C22.6249 0.404644 22.2177 -0.00252148 21.7201 -0.00252144L16.2912 -0.00252096C7.30634 -0.00252018 0.00447005 7.30839 0.00447083 16.2842L0.00447265 37.0949C0.0044727 37.5926 0.41164 37.9998 0.909288 37.9998Z" fill="white" fill-opacity="0.2"/>
</g>
</g>
</svg>
