<svg width="54" height="20" viewBox="0 0 54 20" fill="none" xmlns="http://www.w3.org/2000/svg">
<rect opacity="0.2" width="54" height="20" rx="10" fill="white"/>
<circle cx="12" cy="10" r="4" fill="#FF3E3E"/>
<path opacity="0.8" d="M22.226 4.976V15H21.218V4.976H22.226ZM21.386 15V14.076H26.832V15H21.386ZM28.131 15V8.224H29.097V15H28.131ZM28.607 6.362C28.411 6.362 28.243 6.292 28.103 6.152C27.963 6.012 27.893 5.844 27.893 5.648C27.893 5.452 27.963 5.284 28.103 5.144C28.243 4.99467 28.411 4.92 28.607 4.92C28.803 4.92 28.971 4.99467 29.111 5.144C29.2604 5.284 29.335 5.452 29.335 5.648C29.335 5.844 29.2604 6.012 29.111 6.152C28.971 6.292 28.803 6.362 28.607 6.362ZM33.0015 15L30.2295 8.224H31.2655L33.0155 12.592C33.1182 12.844 33.2068 13.0867 33.2815 13.32C33.3655 13.544 33.4402 13.768 33.5055 13.992C33.5708 13.7587 33.6455 13.53 33.7295 13.306C33.8135 13.0727 33.9068 12.8347 34.0095 12.592L35.7875 8.224H36.7815L33.9675 15H33.0015ZM40.4613 15.168C39.808 15.168 39.2293 15.0187 38.7253 14.72C38.2307 14.4213 37.8433 14.006 37.5633 13.474C37.2833 12.942 37.1433 12.3213 37.1433 11.612C37.1433 10.912 37.2787 10.296 37.5493 9.764C37.8293 9.22267 38.212 8.80267 38.6973 8.504C39.1827 8.196 39.7473 8.042 40.3913 8.042C41.0073 8.042 41.544 8.17733 42.0013 8.448C42.468 8.71867 42.8273 9.09667 43.0793 9.582C43.3407 10.058 43.4713 10.618 43.4713 11.262V11.738H37.6753L37.7033 11.038H42.5053C42.5053 10.3847 42.3093 9.862 41.9173 9.47C41.5347 9.06867 41.026 8.868 40.3913 8.868C39.9247 8.868 39.514 8.97533 39.1593 9.19C38.814 9.40467 38.548 9.71267 38.3613 10.114C38.1747 10.506 38.0813 10.9727 38.0813 11.514C38.0813 12.41 38.2867 13.1053 38.6973 13.6C39.1173 14.0947 39.71 14.342 40.4753 14.342C41.026 14.342 41.4787 14.2253 41.8333 13.992C42.188 13.7587 42.426 13.418 42.5473 12.97H43.4713C43.294 13.6793 42.9487 14.2253 42.4353 14.608C41.922 14.9813 41.264 15.168 40.4613 15.168Z" fill="white" fill-opacity="0.7"/>
</svg>
