<svg width="24" height="24" viewBox="0 0 24 24" fill="none" xmlns="http://www.w3.org/2000/svg">
<path d="M3.42578 12.4291C4.28292 11.8583 7.88292 10.7148 11.9972 10.7148C16.1115 10.7148 19.7115 11.8583 20.5686 12.4291" stroke="white" stroke-linecap="round" stroke-linejoin="round"/>
<path d="M6.84762 11.2898C6.7979 13.2407 6.50133 16.851 5.62705 20.2127C5.38705 21.1281 5.87562 22.0847 6.80647 22.2578C8.0699 22.4927 9.8699 22.7138 11.999 22.7138C14.1282 22.7138 15.9282 22.4927 17.1916 22.2578C18.1225 22.0847 18.6093 21.1281 18.371 20.2127C17.495 16.8441 17.1985 13.2287 17.1488 11.2812" stroke="white" stroke-linecap="round" stroke-linejoin="round"/>
<path d="M6.47852 15.6631C8.5888 15.0631 12.7014 14.5283 17.5099 15.718" stroke="white" stroke-linecap="round" stroke-linejoin="round"/>
<path d="M3 1.28516V4.71373" stroke="white" stroke-linecap="round" stroke-linejoin="round"/>
<path d="M7.43359 6.23047V6.93675" stroke="white" stroke-linecap="round" stroke-linejoin="round"/>
<path d="M1.28516 3H4.71373" stroke="white" stroke-linecap="round" stroke-linejoin="round"/>
<path d="M12 6.8577L21.4286 1.71484" stroke="white" stroke-linecap="round" stroke-linejoin="round"/>
</svg>
