<svg fill="none" height="24" viewBox="0 0 24 24" width="24" xmlns="http://www.w3.org/2000/svg"><path d="m9 4v3c0 .53043-.21071 1.03914-.58579 1.41421-.37507.37508-.88378.58579-1.41421.58579h-3m16 0h-3c-.5304 0-1.0391-.21071-1.4142-.58579-.3751-.37507-.5858-.88378-.5858-1.41421v-3m0 16v-3c0-.5304.2107-1.0391.5858-1.4142s.8838-.5858 1.4142-.5858h3m-16 0h3c.53043 0 1.03914.2107 1.41421.5858.37508.3751.58579.8838.58579 1.4142v3" stroke="#343a3f" stroke-linecap="round" stroke-linejoin="round" stroke-width="2"/></svg>