<svg width="39" height="23" viewBox="0 0 39 23" fill="none" xmlns="http://www.w3.org/2000/svg">
<path d="M22.8447 11.4223C22.8447 17.731 17.7305 22.8443 11.422 22.8443C5.11356 22.8443 0 17.7307 0 11.4223C0 5.11419 5.11363 0.000244141 11.422 0.000244141C17.7303 0.000244141 22.8447 5.11444 22.8447 11.4223Z" fill="#D9222A"/>
<path d="M26.7569 0C23.8057 0 21.1163 1.11968 19.0892 2.95681C18.6762 3.33154 18.2907 3.73548 17.9358 4.16557H20.2436C20.5595 4.54972 20.8504 4.95378 21.1144 5.37535H17.0652C16.8216 5.7649 16.6018 6.16878 16.4071 6.58487H21.7721C21.9563 6.97844 22.1177 7.38219 22.2558 7.79414H15.9235C15.7905 8.19083 15.6797 8.59464 15.5916 9.00367H22.5873C22.7584 9.79843 22.8447 10.6092 22.8445 11.4222C22.8445 12.6907 22.6374 13.911 22.2556 15.0506H15.9234C16.0611 15.4627 16.2225 15.8666 16.4067 16.2601H21.772C21.5771 16.6763 21.3572 17.0803 21.1136 17.47H17.065C17.3288 17.8912 17.6198 18.295 17.9358 18.6787H20.243C19.8886 19.1096 19.503 19.514 19.0894 19.8886C21.1165 21.7254 23.8056 22.8445 26.7571 22.8445C33.0655 22.8445 38.1797 17.731 38.1797 11.4225C38.1797 5.11471 33.0655 0.00050878 26.7571 0.00050878" fill="#EE9F2D"/>
<path d="M36.6566 17.7893C36.6566 17.5858 36.8216 17.4202 37.0255 17.4202C37.2293 17.4202 37.3943 17.5858 37.3943 17.7893C37.3943 17.9929 37.2293 18.1585 37.0255 18.1585C36.8216 18.1585 36.6566 17.9929 36.6566 17.7893ZM37.0255 18.0698C37.1803 18.0698 37.3059 17.9442 37.3059 17.7893C37.3059 17.6346 37.1805 17.5092 37.0258 17.5091H37.0255C36.8709 17.5089 36.7455 17.634 36.7452 17.7885V17.7894C36.7451 17.9442 36.8704 18.0698 37.0252 18.0699C37.0253 18.0698 37.0254 18.0698 37.0255 18.0698ZM36.9756 17.9515H36.9001V17.6272H37.0368C37.0655 17.6272 37.0946 17.6272 37.1199 17.6434C37.1462 17.6611 37.161 17.6924 37.161 17.7247C37.161 17.7611 37.1395 17.795 37.1047 17.8082L37.1644 17.9514H37.0807L37.0312 17.823H36.9758L36.9756 17.9515ZM36.9756 17.7676H37.0175C37.0332 17.7676 37.0496 17.7689 37.0637 17.7612C37.0761 17.7532 37.0825 17.7384 37.0825 17.724C37.0822 17.7107 37.0754 17.6985 37.0642 17.6911C37.051 17.6829 37.0301 17.6846 37.016 17.6846H36.9756V17.7676ZM8.75466 12.673C8.62447 12.6578 8.56726 12.6538 8.47786 12.6538C7.77498 12.6538 7.41914 12.8948 7.41914 13.3708C7.41914 13.6642 7.5928 13.8509 7.86374 13.8509C8.36892 13.8509 8.7329 13.3699 8.75466 12.673ZM9.6564 14.7726H8.62899L8.6526 14.2841C8.33914 14.6701 7.92108 14.8536 7.35284 14.8536C6.68069 14.8536 6.21993 14.3286 6.21993 13.5664C6.21993 12.4194 7.02144 11.7502 8.39724 11.7502C8.53774 11.7502 8.71807 11.7629 8.90254 11.7865C8.94098 11.6312 8.95109 11.5645 8.95109 11.481C8.95109 11.1687 8.735 11.0523 8.15569 11.0523C7.54908 11.0454 7.04874 11.1968 6.84327 11.2644C6.85625 11.1862 7.01508 10.2043 7.01508 10.2043C7.63308 10.0232 8.04058 9.95509 8.4993 9.95509C9.564 9.95509 10.128 10.4332 10.127 11.3367C10.1291 11.5788 10.089 11.8776 10.0265 12.2702C9.91888 12.9533 9.68796 14.416 9.6564 14.7726ZM5.70113 14.7726H4.46113L5.17139 10.3185L3.58536 14.7726H2.74038L2.6359 10.344L1.8893 14.7726H0.728516L1.69808 8.97846H3.48113L3.5893 12.2217L4.67691 8.97846H6.66014L5.70113 14.7726ZM28.2887 12.673C28.1591 12.6578 28.1016 12.6538 28.0124 12.6538C27.3099 12.6538 26.954 12.8948 26.954 13.3708C26.954 13.6642 27.1274 13.8509 27.3983 13.8509C27.9036 13.8509 28.2678 13.3699 28.2887 12.673ZM29.1913 14.7726H28.1639L28.1872 14.2841C27.8737 14.6701 27.4554 14.8536 26.8877 14.8536C26.2154 14.8536 25.755 14.3286 25.755 13.5664C25.755 12.4194 26.556 11.7502 27.9321 11.7502C28.0726 11.7502 28.2526 11.7629 28.4369 11.7865C28.4754 11.6312 28.4855 11.5645 28.4855 11.481C28.4855 11.1687 28.2696 11.0523 27.6903 11.0523C27.0837 11.0454 26.584 11.1968 26.3777 11.2644C26.3906 11.1862 26.55 10.2043 26.55 10.2043C27.168 10.0232 27.5753 9.95509 28.0335 9.95509C29.0987 9.95509 29.6627 10.4332 29.6617 11.3367C29.6637 11.5788 29.6237 11.8776 29.5612 12.2702C29.454 12.9533 29.2226 14.416 29.1913 14.7726ZM15.1673 14.701C14.828 14.8078 14.5634 14.8536 14.2765 14.8536C13.6426 14.8536 13.2966 14.4893 13.2966 13.8185C13.2876 13.6103 13.3878 13.0625 13.4666 12.5626C13.5382 12.1224 14.0042 9.34728 14.0042 9.34728H15.2368L15.0928 10.0605H15.8373L15.6691 11.1929H14.922C14.7788 12.089 14.5749 13.2052 14.5726 13.3532C14.5726 13.596 14.7022 13.7021 14.9971 13.7021C15.1384 13.7021 15.2478 13.6876 15.3314 13.6575L15.1673 14.701ZM18.9466 14.6628C18.5232 14.7922 18.1146 14.8548 17.6816 14.8537C16.3018 14.8524 15.5826 14.1317 15.5826 12.7518C15.5826 11.1411 16.4976 9.95535 17.7397 9.95535C18.756 9.95535 19.405 10.6192 19.405 11.6604C19.405 12.0059 19.3605 12.3432 19.2531 12.8193H16.7985C16.7155 13.5028 17.1529 13.7876 17.8699 13.7876C18.3112 13.7876 18.7091 13.6967 19.1516 13.4909L18.9466 14.6628ZM18.2538 11.8693C18.2606 11.7712 18.3845 11.0283 17.6803 11.0283C17.2876 11.0283 17.0068 11.3276 16.8925 11.8693H18.2538ZM10.4003 11.5501C10.4003 12.1461 10.6893 12.5571 11.3447 12.8658C11.8469 13.1018 11.9245 13.1718 11.9245 13.3856C11.9245 13.6794 11.7031 13.812 11.2124 13.812C10.8425 13.812 10.4984 13.7543 10.1015 13.6261C10.1015 13.6261 9.93841 14.6647 9.93097 14.7144C10.2129 14.7759 10.4642 14.8328 11.2214 14.8537C12.5298 14.8537 13.1341 14.3555 13.1341 13.2788C13.1341 12.6313 12.8811 12.2514 12.26 11.9658C11.74 11.7272 11.6804 11.6739 11.6804 11.4539C11.6804 11.1991 11.8864 11.0692 12.2873 11.0692C12.5307 11.0692 12.8632 11.0951 13.1781 11.1399L13.3547 10.047C13.0336 9.99614 12.5468 9.95528 12.2634 9.95528C10.8762 9.95535 10.396 10.6799 10.4003 11.5501ZM24.9778 10.0792C25.3222 10.0792 25.6433 10.1696 26.0858 10.3923L26.2886 9.13474C26.107 9.06341 25.4675 8.64478 24.9258 8.64478C24.096 8.64478 23.3945 9.05654 22.901 9.73607C22.1814 9.4977 21.8856 9.97946 21.5229 10.4594L21.2008 10.5344C21.2251 10.3764 21.2472 10.2194 21.2397 10.0606H20.101C19.9454 11.5189 19.6697 12.9958 19.4537 14.456L19.3975 14.7726H20.6381C20.8451 13.4273 20.9586 12.5659 21.0276 11.9829L21.4947 11.723C21.5645 11.4635 21.7829 11.3757 22.2212 11.3863C22.1623 11.705 22.1328 12.0284 22.1332 12.3525C22.1332 13.894 22.9649 14.8538 24.2999 14.8538C24.6437 14.8538 24.9388 14.8085 25.3957 14.6846L25.6139 13.3637C25.203 13.5661 24.8657 13.6613 24.5602 13.6613C23.8394 13.6613 23.4032 13.1291 23.4032 12.2496C23.4032 10.9737 24.052 10.0792 24.9778 10.0792Z" fill="black"/>
<path d="M6.05849 14.4282H4.81823L5.52907 9.97473L3.94297 14.4282H3.09774L2.99326 10.0002L2.24666 14.4282H1.08594L2.0555 8.63501H3.83855L3.88869 12.2215L5.0916 8.63501H7.01756L6.05849 14.4282Z" fill="white"/>
<path d="M35.4765 8.97876L35.2015 10.6529C34.8624 10.2066 34.4981 9.88368 34.0172 9.88368C33.3915 9.88368 32.822 10.3581 32.4491 11.0561C31.93 10.9484 31.393 10.7657 31.393 10.7657L31.3928 10.77C31.4346 10.3797 31.4514 10.1416 31.4476 10.0608H30.3086C30.1535 11.519 29.8778 12.996 29.6623 14.4562L29.6055 14.7728H30.8458C31.0133 13.6849 31.1416 12.7817 31.236 12.0652C31.6597 11.6824 31.8719 11.3483 32.3 11.3706C32.1105 11.829 31.9994 12.3571 31.9994 12.8988C31.9994 14.0769 32.5954 14.8539 33.4968 14.8539C33.9513 14.8539 34.3 14.6973 34.6401 14.334L34.582 14.772H35.7551L36.6995 8.97882L35.4765 8.97876ZM33.9257 13.6838C33.5035 13.6838 33.2904 13.3715 33.2904 12.755C33.2904 11.8289 33.6895 11.1722 34.252 11.1722C34.6781 11.1722 34.9087 11.4969 34.9087 12.0954C34.9088 13.0295 34.5034 13.6838 33.9257 13.6838Z" fill="black"/>
<path d="M9.11144 12.3297C8.9815 12.3147 8.92397 12.3107 8.83489 12.3107C8.13201 12.3107 7.77643 12.5516 7.77643 13.0275C7.77643 13.3205 7.95008 13.5078 8.22052 13.5078C8.7262 13.5077 9.09025 13.0268 9.11144 12.3297ZM10.0136 14.4285H8.98621L9.00956 13.9409C8.69643 14.3262 8.27779 14.5104 7.71012 14.5104C7.03772 14.5104 6.57715 13.9855 6.57715 13.2232C6.57715 12.0758 7.37841 11.407 8.75446 11.407C8.89496 11.407 9.07529 11.4197 9.25957 11.4434C9.29801 11.288 9.30812 11.2215 9.30812 11.1374C9.30812 10.825 9.09228 10.7092 8.51297 10.7092C7.90611 10.7024 7.40602 10.8537 7.2003 10.9205C7.21328 10.8426 7.37211 9.86189 7.37211 9.86189C7.98985 9.68003 8.39786 9.61188 8.85601 9.61188C9.92103 9.61188 10.4853 10.0902 10.4842 10.993C10.4861 11.2361 10.4458 11.5347 10.3834 11.9268C10.2761 12.6092 10.045 14.0727 10.0136 14.4285ZM26.6459 8.79122L26.4428 10.049C26.0006 9.82658 25.6792 9.73597 25.3352 9.73597C24.4092 9.73597 23.7603 10.6305 23.7603 11.9062C23.7603 12.7857 24.1966 13.3176 24.9173 13.3176C25.2228 13.3176 25.5598 13.2227 25.9707 13.0202L25.753 14.3405C25.2959 14.4651 25.0011 14.5104 24.657 14.5104C23.3221 14.5104 22.4902 13.5506 22.4902 12.0091C22.4902 9.93787 23.6393 8.49023 25.2829 8.49023C25.8242 8.4903 26.464 8.71988 26.6459 8.79122ZM28.6466 12.3297C28.5168 12.3147 28.4595 12.3107 28.37 12.3107C27.6675 12.3107 27.3116 12.5516 27.3116 13.0275C27.3116 13.3205 27.4853 13.5078 27.756 13.5078C28.2611 13.5077 28.6254 13.0268 28.6466 12.3297ZM29.5488 14.4285H28.5212L28.5448 13.9409C28.2314 14.3262 27.813 14.5104 27.2453 14.5104C26.5732 14.5104 26.1124 13.9855 26.1124 13.2232C26.1124 12.0758 26.9139 11.407 28.2894 11.407C28.4302 11.407 28.6102 11.4197 28.7947 11.4434C28.833 11.288 28.8433 11.2215 28.8433 11.1374C28.8433 10.825 28.6274 10.7092 28.0482 10.7092C27.4416 10.7024 26.9412 10.8537 26.7354 10.9205C26.7484 10.8426 26.9075 9.86189 26.9075 9.86189C27.5253 9.68003 27.933 9.61188 28.3912 9.61188C29.4564 9.61188 30.0204 10.0902 30.0191 10.993C30.0212 11.2361 29.9811 11.5347 29.9186 11.9268C29.8116 12.6092 29.5799 14.0727 29.5488 14.4285ZM15.5249 14.3572C15.1852 14.464 14.9206 14.5104 14.634 14.5104C14.0001 14.5104 13.6542 14.1461 13.6542 13.4753C13.6454 13.2666 13.7457 12.7193 13.8244 12.2194C13.8956 11.7787 14.3617 9.00381 14.3617 9.00381H15.5942L15.4504 9.71726H16.0829L15.9146 10.8492H15.2798C15.1367 11.7459 14.9322 12.8612 14.9301 13.0095C14.9301 13.2532 15.06 13.3583 15.3546 13.3583C15.4959 13.3583 15.6052 13.3446 15.6889 13.3143L15.5249 14.3572ZM19.3041 14.3195C18.8809 14.4489 18.4718 14.5112 18.0391 14.5104C16.6593 14.5091 15.9401 13.7885 15.9401 12.4085C15.9401 10.7972 16.8551 9.61182 18.0972 9.61182C19.1134 9.61182 19.7625 10.2754 19.7625 11.3172C19.7625 11.6629 19.7179 12.0001 19.6108 12.476H17.1562C17.0731 13.1595 17.5106 13.4447 18.2276 13.4447C18.6686 13.4447 19.0668 13.3533 19.509 13.147L19.3041 14.3195ZM18.6111 11.5253C18.6184 11.4274 18.7421 10.6843 18.0375 10.6843C17.6451 10.6843 17.3644 10.9844 17.2501 11.5253H18.6111ZM10.7575 11.2068C10.7575 11.8029 11.0466 12.2134 11.702 12.5224C12.2042 12.7584 12.2818 12.8286 12.2818 13.0424C12.2818 13.3362 12.0602 13.4687 11.5699 13.4687C11.1998 13.4687 10.8556 13.4109 10.4584 13.2828C10.4584 13.2828 10.2959 14.3214 10.2884 14.371C10.5698 14.4325 10.8214 14.4887 11.5786 14.5104C12.8873 14.5104 13.4913 14.0123 13.4913 12.9358C13.4913 12.288 13.2386 11.9081 12.6172 11.6226C12.0975 11.3834 12.0373 11.3309 12.0373 11.1106C12.0373 10.8561 12.2439 10.7251 12.6445 10.7251C12.8876 10.7251 13.2201 10.7519 13.5356 10.7967L13.7119 9.70351C13.3911 9.65261 12.9043 9.61182 12.6209 9.61182C11.2334 9.61182 10.7535 10.3359 10.7575 11.2068ZM36.1119 14.4285H34.9386L34.997 13.9899C34.6567 14.3537 34.3081 14.5104 33.8536 14.5104C32.9522 14.5104 32.3565 13.7333 32.3565 12.5553C32.3565 10.988 33.2805 9.66686 34.3741 9.66686C34.8551 9.66686 35.2191 9.86329 35.558 10.3093L35.8332 8.63525H37.0562L36.1119 14.4285ZM34.2827 13.3399C34.8602 13.3399 35.2658 12.6855 35.2658 11.752C35.2658 11.1536 35.0349 10.8288 34.6088 10.8288C34.0465 10.8288 33.647 11.4852 33.647 12.4116C33.6469 13.028 33.8606 13.3399 34.2827 13.3399ZM30.6657 9.71732C30.5104 11.1756 30.2347 12.6527 30.0191 14.112L29.9623 14.4286H31.2026C31.6462 11.5476 31.7535 10.985 32.449 11.0555C32.5598 10.4658 32.766 9.94939 32.9198 9.68875C32.4004 9.58058 32.1103 9.87411 31.7307 10.4317C31.7606 10.1906 31.8155 9.95652 31.8046 9.71739L30.6657 9.71732ZM20.4578 9.71732C20.3021 11.1756 20.0264 12.6527 19.8108 14.112L19.7543 14.4286H20.9952C21.4382 11.5476 21.5453 10.985 22.2405 11.0555C22.3518 10.4658 22.558 9.94939 22.7113 9.68875C22.1924 9.58058 21.9021 9.87411 21.5227 10.4317C21.5527 10.1906 21.6069 9.95652 21.5966 9.71739L20.4578 9.71732ZM36.6567 14.0597C36.6564 13.8561 36.8212 13.6909 37.0247 13.6907H37.0255C37.2289 13.6904 37.3941 13.8552 37.3943 14.0586V14.0597C37.3943 14.2633 37.2292 14.4284 37.0255 14.4285C36.8218 14.4284 36.6568 14.2633 36.6567 14.0597ZM37.0255 14.34C37.1802 14.3401 37.3056 14.2147 37.3057 14.06V14.0598C37.3059 13.905 37.1804 13.7794 37.0258 13.7793H37.0255C36.8706 13.7794 36.7451 13.9049 36.745 14.0598C36.7451 14.2145 36.8707 14.34 37.0255 14.34ZM36.9756 14.2209H36.9V13.8975H37.037C37.0654 13.8975 37.0949 13.8981 37.1195 13.9137C37.146 13.9317 37.1611 13.9625 37.1611 13.9948C37.1611 14.0313 37.1397 14.0655 37.1046 14.0786L37.1645 14.2208H37.0805L37.0309 14.093H36.9756L36.9756 14.2209ZM36.9756 14.0377H37.0172C37.0328 14.0377 37.0498 14.0389 37.0636 14.0313C37.076 14.0234 37.0824 14.0084 37.0824 13.9939C37.0818 13.9806 37.0751 13.9682 37.0641 13.9606C37.0511 13.9532 37.0296 13.9553 37.0156 13.9553H36.9756L36.9756 14.0377Z" fill="white"/>
</svg>
