<svg width="17" height="17" viewBox="0 0 17 17" fill="none" xmlns="http://www.w3.org/2000/svg">
<path d="M5.51449 1.64771H11.1145C13.2478 1.64771 14.9812 3.38104 14.9812 5.51437V11.1144C14.9812 12.1399 14.5738 13.1234 13.8486 13.8485C13.1235 14.5737 12.14 14.981 11.1145 14.981H5.51449C3.38116 14.981 1.64783 13.2477 1.64783 11.1144V5.51437C1.64783 4.48887 2.05521 3.50537 2.78035 2.78023C3.50549 2.05508 4.48899 1.64771 5.51449 1.64771ZM5.38116 2.98104C4.74464 2.98104 4.13419 3.23389 3.6841 3.68398C3.23402 4.13407 2.98116 4.74452 2.98116 5.38104V11.2477C2.98116 12.5744 4.05449 13.6477 5.38116 13.6477H11.2478C11.8843 13.6477 12.4948 13.3948 12.9449 12.9448C13.395 12.4947 13.6478 11.8842 13.6478 11.2477V5.38104C13.6478 4.05437 12.5745 2.98104 11.2478 2.98104H5.38116ZM11.8145 3.98104C12.0355 3.98104 12.2475 4.06884 12.4037 4.22512C12.56 4.3814 12.6478 4.59336 12.6478 4.81437C12.6478 5.03539 12.56 5.24735 12.4037 5.40363C12.2475 5.55991 12.0355 5.6477 11.8145 5.6477C11.5935 5.6477 11.3815 5.55991 11.2252 5.40363C11.069 5.24735 10.9812 5.03539 10.9812 4.81437C10.9812 4.59336 11.069 4.3814 11.2252 4.22512C11.3815 4.06884 11.5935 3.98104 11.8145 3.98104ZM8.31449 4.98104C9.19855 4.98104 10.0464 5.33223 10.6715 5.95735C11.2966 6.58247 11.6478 7.43032 11.6478 8.31437C11.6478 9.19843 11.2966 10.0463 10.6715 10.6714C10.0464 11.2965 9.19855 11.6477 8.31449 11.6477C7.43044 11.6477 6.58259 11.2965 5.95747 10.6714C5.33235 10.0463 4.98116 9.19843 4.98116 8.31437C4.98116 7.43032 5.33235 6.58247 5.95747 5.95735C6.58259 5.33223 7.43044 4.98104 8.31449 4.98104ZM8.31449 6.31437C7.78406 6.31437 7.27535 6.52508 6.90028 6.90016C6.52521 7.27523 6.31449 7.78394 6.31449 8.31437C6.31449 8.8448 6.52521 9.35351 6.90028 9.72859C7.27535 10.1037 7.78406 10.3144 8.31449 10.3144C8.84493 10.3144 9.35363 10.1037 9.72871 9.72859C10.1038 9.35351 10.3145 8.8448 10.3145 8.31437C10.3145 7.78394 10.1038 7.27523 9.72871 6.90016C9.35363 6.52508 8.84493 6.31437 8.31449 6.31437Z" fill="white"/>
</svg>
