<svg width="24" height="24" viewBox="0 0 24 24" fill="none" xmlns="http://www.w3.org/2000/svg">
<path d="M23.501 15.471C23.5045 15.3527 23.4653 15.2371 23.3906 15.1453C23.3158 15.0534 23.2106 14.9916 23.094 14.971C22.3744 14.8738 21.7146 14.5189 21.2367 13.9722C20.7589 13.4255 20.4956 12.7241 20.4956 11.998C20.4956 11.2719 20.7589 10.5705 21.2367 10.0238C21.7146 9.47706 22.3744 9.12219 23.094 9.025C23.2107 9.0046 23.316 8.9428 23.3908 8.85095C23.4656 8.7591 23.5047 8.64337 23.501 8.525V5C23.501 4.86739 23.4483 4.74021 23.3546 4.64645C23.2608 4.55268 23.1336 4.5 23.001 4.5H1.00098C0.868369 4.5 0.741192 4.55268 0.647424 4.64645C0.553655 4.74021 0.500977 4.86739 0.500977 5V8.536C0.501201 8.65615 0.544681 8.7722 0.62346 8.86291C0.702238 8.95363 0.811048 9.01294 0.929977 9.03C1.64509 9.1319 2.29942 9.48839 2.77279 10.034C3.24616 10.5796 3.50678 11.2777 3.50678 12C3.50678 12.7223 3.24616 13.4204 2.77279 13.966C2.29942 14.5116 1.64509 14.8681 0.929977 14.97C0.811048 14.9871 0.702238 15.0464 0.62346 15.1371C0.544681 15.2278 0.501201 15.3439 0.500977 15.464V19C0.500977 19.1326 0.553655 19.2598 0.647424 19.3536C0.741192 19.4473 0.868369 19.5 1.00098 19.5H23.001C23.1336 19.5 23.2608 19.4473 23.3546 19.3536C23.4483 19.2598 23.501 19.1326 23.501 19V15.471Z" stroke="white" stroke-linecap="round" stroke-linejoin="round"/>
<path d="M15.001 7.5H7.00098C6.72484 7.5 6.50098 7.72386 6.50098 8V16C6.50098 16.2761 6.72484 16.5 7.00098 16.5H15.001C15.2771 16.5 15.501 16.2761 15.501 16V8C15.501 7.72386 15.2771 7.5 15.001 7.5Z" stroke="white" stroke-linecap="round" stroke-linejoin="round"/>
<path d="M9.50098 10.5H12.501" stroke="white" stroke-linecap="round" stroke-linejoin="round"/>
<path d="M9.50098 13.5H12.501" stroke="white" stroke-linecap="round" stroke-linejoin="round"/>
<path d="M18.751 7.25C18.6129 7.25 18.501 7.13807 18.501 7C18.501 6.86193 18.6129 6.75 18.751 6.75" stroke="white"/>
<path d="M18.75 7.25C18.8881 7.25 19 7.13807 19 7C19 6.86193 18.8881 6.75 18.75 6.75" stroke="white"/>
<path d="M18.751 10.25C18.6129 10.25 18.501 10.1381 18.501 10C18.501 9.86193 18.6129 9.75 18.751 9.75" stroke="white"/>
<path d="M18.75 10.25C18.8881 10.25 19 10.1381 19 10C19 9.86193 18.8881 9.75 18.75 9.75" stroke="white"/>
<path d="M18.751 14.252C18.6129 14.252 18.501 14.1401 18.501 14.002C18.501 13.8639 18.6129 13.752 18.751 13.752" stroke="white"/>
<path d="M18.75 14.252C18.8881 14.252 19 14.1401 19 14.002C19 13.8639 18.8881 13.752 18.75 13.752" stroke="white"/>
<path d="M18.751 17.252C18.6129 17.252 18.501 17.1401 18.501 17.002C18.501 16.8639 18.6129 16.752 18.751 16.752" stroke="white"/>
<path d="M18.75 17.252C18.8881 17.252 19 17.1401 19 17.002C19 16.8639 18.8881 16.752 18.75 16.752" stroke="white"/>
</svg>
