<svg width="25" height="24" viewBox="0 0 25 24" fill="none" xmlns="http://www.w3.org/2000/svg">
<path d="M3.53652 14.5728C2.12647 12.7854 1.35953 10.5752 1.35938 8.29854V2.70997C3.70922 1.49399 6.31642 0.859375 8.96223 0.859375C11.608 0.859375 14.2152 1.49399 16.5651 2.70997" stroke="white" stroke-linecap="round" stroke-linejoin="round"/>
<path d="M13.8559 23.0411C13.256 23.1767 12.6325 23.1681 12.0365 23.0162C11.4405 22.8642 10.8891 22.5731 10.4273 22.1668C8.82318 20.7839 7.63531 18.9822 6.99652 16.9628C6.35774 14.9435 6.29322 12.7864 6.81018 10.7325L8.06161 5.72679C10.7796 5.03748 13.6262 5.03374 16.3459 5.71592C19.0657 6.39811 21.5736 7.74488 23.6444 9.63536L22.393 14.6239C21.8885 16.6797 20.8234 18.555 19.316 20.0411C17.8088 21.5272 15.9186 22.5657 13.8559 23.0411Z" stroke="white" stroke-linecap="round" stroke-linejoin="round"/>
<path d="M10.1191 11.1628C10.3354 10.9365 10.6095 10.7737 10.9117 10.6921C11.2139 10.6105 11.5327 10.6132 11.8334 10.6999C12.1278 10.7692 12.3986 10.9151 12.6184 11.1228C12.8382 11.3305 12.9991 11.5927 13.0849 11.8828" stroke="white" stroke-linecap="round" stroke-linejoin="round"/>
<path d="M16.9062 12.859C17.1156 12.634 17.3815 12.4695 17.6763 12.3825C17.971 12.2956 18.2837 12.2895 18.5816 12.3648C18.8795 12.4402 19.1516 12.5942 19.3697 12.8109C19.5875 13.0275 19.7434 13.2987 19.8205 13.5961" stroke="white" stroke-linecap="round" stroke-linejoin="round"/>
</svg>
