<svg width="14" height="15" viewBox="0 0 14 15" fill="none" xmlns="http://www.w3.org/2000/svg">
<path d="M5.33398 9.16667C5.33398 9.60869 5.50958 10.0326 5.82214 10.3452C6.1347 10.6577 6.55862 10.8333 7.00065 10.8333C7.44268 10.8333 7.8666 10.6577 8.17916 10.3452C8.49172 10.0326 8.66732 9.60869 8.66732 9.16667C8.66732 8.72464 8.49172 8.30072 8.17916 7.98816C7.8666 7.67559 7.44268 7.5 7.00065 7.5C6.55862 7.5 6.1347 7.67559 5.82214 7.98816C5.50958 8.30072 5.33398 8.72464 5.33398 9.16667Z" stroke="black" stroke-width="0.5"/>
<path d="M3.66797 14.8307V12.7774C4.7322 12.3708 5.86203 12.1629 7.0013 12.1641C8.17597 12.1641 9.2993 12.3807 10.3346 12.7774V14.8307" stroke="black" stroke-width="0.5"/>
<path d="M8.66797 2.4987C8.66797 2.94073 8.84356 3.36465 9.15612 3.67721C9.46868 3.98977 9.89261 4.16536 10.3346 4.16536C10.7767 4.16536 11.2006 3.98977 11.5131 3.67721C11.8257 3.36465 12.0013 2.94073 12.0013 2.4987C12.0013 2.27983 11.9582 2.0631 11.8744 1.86089C11.7907 1.65868 11.6679 1.47495 11.5131 1.32019C11.3584 1.16542 11.1747 1.04266 10.9724 0.958899C10.7702 0.875141 10.5535 0.832031 10.3346 0.832031C10.1158 0.832031 9.89904 0.875141 9.69683 0.958899C9.49462 1.04266 9.31089 1.16542 9.15612 1.32019C9.00136 1.47495 8.87859 1.65868 8.79484 1.86089C8.71108 2.0631 8.66797 2.27983 8.66797 2.4987Z" stroke="black" stroke-width="0.5"/>
<path d="M13.6673 8.16667V6.11334C12.6031 5.70669 11.4733 5.49881 10.334 5.50001C9.64732 5.50001 8.97798 5.57401 8.33398 5.71467" stroke="black" stroke-width="0.5"/>
<path d="M2 2.4987C2 2.94073 2.17559 3.36465 2.48816 3.67721C2.80072 3.98977 3.22464 4.16536 3.66667 4.16536C4.10869 4.16536 4.53262 3.98977 4.84518 3.67721C5.15774 3.36465 5.33333 2.94073 5.33333 2.4987C5.33333 2.05667 5.15774 1.63275 4.84518 1.32019C4.53262 1.00763 4.10869 0.832031 3.66667 0.832031C3.22464 0.832031 2.80072 1.00763 2.48816 1.32019C2.17559 1.63275 2 2.05667 2 2.4987Z" stroke="black" stroke-width="0.5"/>
<path d="M0.333984 8.16667V6.11334C1.39822 5.70669 2.52804 5.49881 3.66732 5.50001C4.35398 5.50001 5.02332 5.57401 5.66732 5.71467" stroke="black" stroke-width="0.5"/>
</svg>
