<svg width="16" height="17" viewBox="0 0 16 17" fill="none" xmlns="http://www.w3.org/2000/svg">
<g clip-path="url(#clip0_2824_3099)">
<path d="M3 14.832V15.832C3 15.9204 2.96488 16.0052 2.90237 16.0677C2.83986 16.1302 2.75507 16.1654 2.66667 16.1654H1.33333C1.24493 16.1654 1.16014 16.1302 1.09763 16.0677C1.03512 16.0052 1 15.9204 1 15.832V14.832" stroke="black" stroke-width="0.5" stroke-linecap="round" stroke-linejoin="round"/>
<path d="M12.334 14.832V15.832C12.334 15.8758 12.3254 15.9192 12.3086 15.9596C12.2919 16 12.2673 16.0368 12.2364 16.0677C12.2054 16.0987 12.1687 16.1232 12.1282 16.14C12.0878 16.1567 12.0444 16.1654 12.0007 16.1654H10.6673C10.5789 16.1654 10.4941 16.1302 10.4316 16.0677C10.3691 16.0052 10.334 15.9204 10.334 15.832V14.832" stroke="black" stroke-width="0.5" stroke-linecap="round" stroke-linejoin="round"/>
<path d="M12.6673 14.832C12.7111 14.832 12.7544 14.8234 12.7949 14.8067C12.8353 14.7899 12.8721 14.7654 12.903 14.7344C12.934 14.7034 12.9585 14.6667 12.9753 14.6263C12.992 14.5858 13.0007 14.5425 13.0007 14.4987V12.3034C13.0006 12.2151 12.9656 12.1305 12.9033 12.068L11.6673 10.832H1.66732L0.431318 12.068C0.369005 12.1305 0.334003 12.2151 0.333984 12.3034V14.4987C0.333984 14.5871 0.369103 14.6719 0.431615 14.7344C0.494128 14.7969 0.578912 14.832 0.667318 14.832H12.6673Z" stroke="black" stroke-width="0.5" stroke-linecap="round" stroke-linejoin="round"/>
<path d="M5.96668 7.5H3.22535C3.15867 7.49988 3.09348 7.51977 3.03822 7.55709C2.98296 7.5944 2.94015 7.64744 2.91535 7.70933L1.66602 10.8333" stroke="black" stroke-width="0.5" stroke-linecap="round" stroke-linejoin="round"/>
<path d="M0.333984 13.5H3.33398" stroke="black" stroke-width="0.5" stroke-linecap="round" stroke-linejoin="round"/>
<path d="M10 13.5H13" stroke="black" stroke-width="0.5" stroke-linecap="round" stroke-linejoin="round"/>
<path d="M7 5.16536C7 6.31464 7.45655 7.41684 8.2692 8.22949C9.08186 9.04215 10.1841 9.4987 11.3333 9.4987C12.4826 9.4987 13.5848 9.04215 14.3975 8.22949C15.2101 7.41684 15.6667 6.31464 15.6667 5.16536C15.6667 4.01609 15.2101 2.91389 14.3975 2.10124C13.5848 1.28858 12.4826 0.832031 11.3333 0.832031C10.1841 0.832031 9.08186 1.28858 8.2692 2.10124C7.45655 2.91389 7 4.01609 7 5.16536Z" stroke="black" stroke-width="0.5" stroke-linecap="round" stroke-linejoin="round"/>
<path d="M10.334 7.4987V2.83203H11.6673C12.0209 2.83203 12.3601 2.97251 12.6101 3.22256C12.8602 3.4726 13.0007 3.81174 13.0007 4.16536C13.0007 4.51899 12.8602 4.85813 12.6101 5.10817C12.3601 5.35822 12.0209 5.4987 11.6673 5.4987H10.334" stroke="black" stroke-width="0.5" stroke-linecap="round" stroke-linejoin="round"/>
</g>
<defs>
<clipPath id="clip0_2824_3099">
<rect width="16" height="16" fill="white" transform="translate(0 0.5)"/>
</clipPath>
</defs>
</svg>
