<svg width="16" height="16" viewBox="0 0 16 16" fill="none" xmlns="http://www.w3.org/2000/svg">
<path d="M5.71427 13.9885L0.571411 15.4285L2.01141 10.2856L11.4286 0.914171C11.535 0.805318 11.6622 0.718828 11.8024 0.659779C11.9427 0.600731 12.0935 0.570312 12.2457 0.570312C12.3979 0.570312 12.5487 0.600731 12.689 0.659779C12.8292 0.718828 12.9564 0.805318 13.0628 0.914171L15.0857 2.94846C15.1928 3.0547 15.2778 3.1811 15.3359 3.32037C15.3939 3.45963 15.4238 3.60902 15.4238 3.75989C15.4238 3.91075 15.3939 4.06014 15.3359 4.19941C15.2778 4.33866 15.1928 4.46507 15.0857 4.57131L5.71427 13.9885Z" stroke="white" stroke-linecap="round" stroke-linejoin="round"/>
</svg>
