<svg width="22" height="24" viewBox="0 0 22 24" fill="none" xmlns="http://www.w3.org/2000/svg">
<path fill-rule="evenodd" clip-rule="evenodd" d="M3.58846 0.03125C3.08144 0.03125 2.58291 0.160486 2.13991 0.406589C1.68881 0.636542 1.30805 0.984125 1.03801 1.41276C0.764088 1.84754 0.614578 2.34911 0.605724 2.86292L0.605596 21.152L0.605724 21.1667C0.614578 21.6805 0.764088 22.1821 1.03801 22.6169C1.30805 23.0456 1.68881 23.3931 2.13991 23.6231C2.58291 23.8691 3.08144 23.9984 3.58846 23.9984C4.10266 23.9984 4.60813 23.8655 5.05582 23.6125C5.06568 23.607 5.07541 23.6012 5.08503 23.5952L19.8789 14.4453C20.3276 14.2192 20.7062 13.8747 20.974 13.4488C21.2502 13.0089 21.3969 12.5 21.3969 11.9805C21.3969 11.4611 21.2502 10.9522 20.974 10.5123C20.7061 10.0859 20.3267 9.74116 19.8776 9.51508L5.0826 0.432907C5.07377 0.42749 5.06484 0.422232 5.05582 0.417137C4.60813 0.16418 4.10266 0.03125 3.58846 0.03125Z" fill="white"/>
</svg>
