<svg width="24" height="24" viewBox="0 0 24 24" fill="none" xmlns="http://www.w3.org/2000/svg">
<path fill-rule="evenodd" clip-rule="evenodd" d="M4.58846 0.0322266C4.08144 0.0322266 3.58291 0.161462 3.13991 0.407566C2.68881 0.637519 2.30805 0.985102 2.03801 1.41373C1.76409 1.84852 1.61458 2.35009 1.60572 2.86389L1.6056 21.153L1.60572 21.1677C1.61458 21.6815 1.76409 22.1831 2.03801 22.6178C2.30805 23.0466 2.68881 23.3941 3.13991 23.6241C3.58291 23.8701 4.08144 23.9994 4.58846 23.9994C5.10266 23.9994 5.60813 23.8665 6.05582 23.6135C6.06568 23.608 6.07541 23.6022 6.08503 23.5962L20.8789 14.4463C21.3276 14.2202 21.7062 13.8757 21.974 13.4497C22.2502 13.0099 22.3969 12.501 22.3969 11.9815C22.3969 11.4621 22.2502 10.9531 21.974 10.5133C21.7061 10.0869 21.3267 9.74214 20.8776 9.51606L6.0826 0.433884C6.07377 0.428467 6.06484 0.423209 6.05582 0.418114C5.60813 0.165156 5.10266 0.0322266 4.58846 0.0322266Z" fill="white"/>
</svg>
