<svg width="16" height="16" viewBox="0 0 16 16" fill="none" xmlns="http://www.w3.org/2000/svg">
<rect width="16" height="16" rx="8" fill="#870151"/>
<g filter="url(#filter0_i_3875_598)">
<path d="M12.0318 10.2741L12.5682 6.20998C12.5765 6.1547 12.5694 6.09822 12.5477 6.04671C12.526 5.9952 12.4905 5.95065 12.4452 5.91793C12.3999 5.88521 12.3465 5.86557 12.2908 5.86117C12.235 5.85677 12.1792 5.86777 12.1293 5.89297L10.3899 7.2504C10.3574 7.27741 10.3196 7.29728 10.2789 7.30871C10.2383 7.32014 10.1956 7.32288 10.1538 7.31674C10.1121 7.31061 10.072 7.29574 10.0364 7.27311C10.0007 7.25047 9.97021 7.22058 9.94687 7.18537L8.22773 4.67373C8.1995 4.64105 8.16456 4.61483 8.12529 4.59685C8.08601 4.57888 8.04333 4.56958 8.00014 4.56958C7.95695 4.56958 7.91427 4.57888 7.87499 4.59685C7.83572 4.61483 7.80078 4.64105 7.77255 4.67373L6.05342 7.18537C6.03007 7.22058 5.99958 7.25047 5.96392 7.27311C5.92825 7.29574 5.88822 7.31061 5.84643 7.31674C5.80464 7.32288 5.76202 7.32014 5.72136 7.30871C5.6807 7.29728 5.6429 7.27741 5.61042 7.2504L3.87097 5.92549C3.82109 5.90028 3.76523 5.88928 3.70952 5.89368C3.6538 5.89809 3.60037 5.91772 3.55506 5.95044C3.50975 5.98317 3.47431 6.02772 3.45261 6.07922C3.43092 6.13073 3.4238 6.18721 3.43204 6.24249L3.96851 10.2741H12.0318Z" fill="#FFC700"/>
</g>
<path d="M12.0318 10.2741L12.5682 6.20998C12.5765 6.1547 12.5694 6.09822 12.5477 6.04671C12.526 5.9952 12.4905 5.95065 12.4452 5.91793C12.3999 5.88521 12.3465 5.86557 12.2908 5.86117C12.235 5.85677 12.1792 5.86777 12.1293 5.89297L10.3899 7.2504C10.3574 7.27741 10.3196 7.29728 10.2789 7.30871C10.2383 7.32014 10.1956 7.32288 10.1538 7.31674C10.1121 7.31061 10.072 7.29574 10.0364 7.27311C10.0007 7.25047 9.97021 7.22058 9.94687 7.18537L8.22773 4.67373C8.1995 4.64105 8.16456 4.61483 8.12529 4.59685C8.08601 4.57888 8.04333 4.56958 8.00014 4.56958C7.95695 4.56958 7.91427 4.57888 7.87499 4.59685C7.83572 4.61483 7.80078 4.64105 7.77255 4.67373L6.05342 7.18537C6.03007 7.22058 5.99958 7.25047 5.96392 7.27311C5.92825 7.29574 5.88822 7.31061 5.84643 7.31674C5.80464 7.32288 5.76202 7.32014 5.72136 7.30871C5.6807 7.29728 5.6429 7.27741 5.61042 7.2504L3.87097 5.92549C3.82109 5.90028 3.76523 5.88928 3.70952 5.89368C3.6538 5.89809 3.60037 5.91772 3.55506 5.95044C3.50975 5.98317 3.47431 6.02772 3.45261 6.07922C3.43092 6.13073 3.4238 6.18721 3.43204 6.24249L3.96851 10.2741H12.0318Z" stroke="#FFC700" stroke-linecap="round" stroke-linejoin="round"/>
<path d="M4.03955 11.9089H11.9646H4.03955Z" fill="#FFC700"/>
<path d="M4.03955 11.9089H11.9646" stroke="#FFC700" stroke-linecap="round" stroke-linejoin="round"/>
<defs>
<filter id="filter0_i_3875_598" x="2.92871" y="4.06958" width="10.1431" height="7.70459" filterUnits="userSpaceOnUse" color-interpolation-filters="sRGB">
<feFlood flood-opacity="0" result="BackgroundImageFix"/>
<feBlend mode="normal" in="SourceGraphic" in2="BackgroundImageFix" result="shape"/>
<feColorMatrix in="SourceAlpha" type="matrix" values="0 0 0 0 0 0 0 0 0 0 0 0 0 0 0 0 0 0 127 0" result="hardAlpha"/>
<feOffset dy="1"/>
<feGaussianBlur stdDeviation="2"/>
<feComposite in2="hardAlpha" operator="arithmetic" k2="-1" k3="1"/>
<feColorMatrix type="matrix" values="0 0 0 0 0 0 0 0 0 0 0 0 0 0 0 0 0 0 0.25 0"/>
<feBlend mode="normal" in2="shape" result="effect1_innerShadow_3875_598"/>
</filter>
</defs>
</svg>
