<svg width="16" height="16" viewBox="0 0 16 16" fill="none" xmlns="http://www.w3.org/2000/svg">
<g clip-path="url(#clip0_6366_28823)">
<path d="M7.61652 1.30233C7.82721 1.08363 8.1774 1.08363 8.3881 1.30233L9.26647 2.21405C9.40423 2.35702 9.60975 2.41209 9.80054 2.35715L11.0171 2.00677C11.309 1.92272 11.6122 2.09781 11.6854 2.39256L11.9902 3.62132C12.038 3.81401 12.1884 3.96446 12.3811 4.01227L13.6099 4.31711C13.9046 4.39024 14.0797 4.69351 13.9957 4.98533L13.6453 6.20188C13.5904 6.39266 13.6454 6.59818 13.7884 6.73594L14.7001 7.61432C14.9188 7.82502 14.9188 8.1752 14.7001 8.38591L13.7884 9.26427C13.6454 9.40203 13.5904 9.60756 13.6453 9.79834L13.9957 11.0149C14.0797 11.3067 13.9046 11.61 13.6099 11.6831L12.3811 11.9879C12.1884 12.0358 12.038 12.1862 11.9902 12.3789L11.6854 13.6077C11.6122 13.9024 11.309 14.0775 11.0171 13.9934L9.80054 13.6431C9.60975 13.5881 9.40423 13.6432 9.26647 13.7862L8.3881 14.6979C8.1774 14.9166 7.82721 14.9166 7.61652 14.6979L6.73814 13.7862C6.60038 13.6432 6.39486 13.5881 6.20407 13.6431L4.98753 13.9934C4.6957 14.0775 4.39244 13.9024 4.31931 13.6077L4.01447 12.3789C3.96666 12.1862 3.81621 12.0358 3.62351 11.9879L2.39476 11.6831C2.10001 11.61 1.92491 11.3067 2.00897 11.0149L2.35935 9.79834C2.41429 9.60756 2.35922 9.40203 2.21624 9.26427L1.30453 8.38591C1.08583 8.1752 1.08583 7.82502 1.30453 7.61432L2.21624 6.73594C2.35922 6.59818 2.41429 6.39266 2.35935 6.20188L2.00897 4.98533C1.92491 4.69351 2.10001 4.39024 2.39476 4.31711L3.62351 4.01227C3.81621 3.96446 3.96666 3.81401 4.01447 3.62132L4.31931 2.39256C4.39244 2.09781 4.6957 1.92272 4.98753 2.00677L6.20407 2.35715C6.39486 2.41209 6.60038 2.35702 6.73814 2.21405L7.61652 1.30233Z" stroke="white" stroke-width="0.666667" stroke-linecap="round" stroke-linejoin="round"/>
<path d="M10.6465 5.99243L7.00362 10.546L5.18219 9.17993" stroke="white" stroke-width="0.666667" stroke-linecap="round" stroke-linejoin="round"/>
</g>
<defs>
<clipPath id="clip0_6366_28823">
<rect width="16" height="16" fill="white"/>
</clipPath>
</defs>
</svg>
