<svg width="24" height="24" viewBox="0 0 24 24" fill="none" xmlns="http://www.w3.org/2000/svg">
<g clip-path="url(#clip0_2824_2480)">
<path d="M23.1426 0.857422V23.1431" stroke="white" stroke-width="1.5" stroke-linecap="round" stroke-linejoin="round"/>
<path d="M0.891226 19.9905C0.890384 20.2989 0.972745 20.6018 1.12963 20.8673C1.28652 21.1329 1.51211 21.3511 1.78265 21.4991C2.04325 21.6496 2.33888 21.7288 2.63979 21.7288C2.94072 21.7288 3.23633 21.6496 3.49693 21.4991L15.8226 13.442C16.0632 13.2866 16.2611 13.0734 16.398 12.8218C16.535 12.5703 16.6068 12.2884 16.6068 12.002C16.6068 11.7156 16.535 11.4337 16.398 11.1822C16.2611 10.9306 16.0632 10.7174 15.8226 10.562L3.46265 2.57341C3.20204 2.42295 2.90643 2.34375 2.6055 2.34375C2.3046 2.34375 2.00897 2.42295 1.74836 2.57341C1.47783 2.72144 1.25223 2.9397 1.09534 3.2052C0.938459 3.4707 0.856098 3.7736 0.85694 4.08198L0.891226 19.9905Z" stroke="white" stroke-width="1.5" stroke-linecap="round" stroke-linejoin="round"/>
</g>
<defs>
<clipPath id="clip0_2824_2480">
<rect width="24" height="24" fill="white"/>
</clipPath>
</defs>
</svg>
