<svg width="16" height="17" viewBox="0 0 16 17" fill="none" xmlns="http://www.w3.org/2000/svg">
<g clip-path="url(#clip0_2824_2903)">
<path d="M0.981347 9.40524C1.29169 10.1355 1.74282 10.7974 2.30899 11.3533C2.87516 11.9092 3.54528 12.3481 4.28108 12.6451C5.01688 12.942 5.80396 13.091 6.59737 13.0838C7.39079 13.0765 8.175 12.913 8.90524 12.6027C9.63547 12.2923 10.2974 11.8412 10.8533 11.275C11.4092 10.7089 11.8481 10.0388 12.145 9.30295C12.442 8.56715 12.591 7.78007 12.5838 6.98666C12.5765 6.19324 12.413 5.40903 12.1027 4.67879C11.7923 3.94855 11.3412 3.28659 10.775 2.7307C10.2089 2.17481 9.53874 1.73588 8.80294 1.43897C8.06713 1.14206 7.28006 0.992984 6.48664 1.00025C5.69323 1.00752 4.90901 1.171 4.17878 1.48134C3.44854 1.79168 2.78658 2.24282 2.23069 2.80899C1.6748 3.37516 1.23587 4.04528 0.938965 4.78108C0.642056 5.51688 0.492982 6.30396 0.500254 7.09737C0.507526 7.89079 0.671001 8.675 0.981347 9.40524Z" stroke="white" stroke-width="0.666667" stroke-linecap="round" stroke-linejoin="round"/>
<path d="M10.8125 11.3125L15.4985 15.9992" stroke="white" stroke-width="0.666667" stroke-linecap="round" stroke-linejoin="round"/>
</g>
<defs>
<clipPath id="clip0_2824_2903">
<rect width="16" height="16" fill="white" transform="translate(0 0.5)"/>
</clipPath>
</defs>
</svg>
