<svg width="14" height="16" viewBox="0 0 14 16" fill="none" xmlns="http://www.w3.org/2000/svg">
<path d="M4.71436 7.42871C2.50521 7.42871 0.714355 9.21957 0.714355 11.4287C0.714355 13.6379 2.50521 15.4287 4.71436 15.4287C6.1694 15.4287 7.44298 14.6518 8.14293 13.4902" stroke="black" stroke-linecap="round" stroke-linejoin="round"/>
<path d="M7.5716 5.14296C8.83397 5.14296 9.85732 4.11961 9.85732 2.85725C9.85732 1.59488 8.83397 0.571533 7.5716 0.571533C6.30924 0.571533 5.28589 1.59488 5.28589 2.85725C5.28589 4.11961 6.30924 5.14296 7.5716 5.14296Z" stroke="black" stroke-linecap="round" stroke-linejoin="round"/>
<path d="M7.57153 5.14307V9.14307C7.57153 9.77424 8.08321 10.2859 8.71439 10.2859H10.7478C11.2398 10.2859 11.6764 10.6007 11.832 11.0674L13.2858 15.4288" stroke="black" stroke-linecap="round" stroke-linejoin="round"/>
</svg>
