<svg width="17" height="16" viewBox="0 0 17 16" fill="none" xmlns="http://www.w3.org/2000/svg">
<path d="M5.97553 6.96928C5.74232 6.50226 5.35822 6.12768 4.8855 5.90626C4.41278 5.68483 3.87913 5.62954 3.37105 5.74934C2.86297 5.86914 2.41024 6.15702 2.08623 6.56631C1.76223 6.9756 1.58594 7.48231 1.58594 8.00433C1.58594 8.52634 1.76223 9.03305 2.08623 9.44234C2.41024 9.85163 2.86297 10.1395 3.37105 10.2593C3.87913 10.3791 4.41278 10.3238 4.8855 10.1024C5.35822 9.88097 5.74232 9.50639 5.97553 9.03937" stroke="#4F4F4F" stroke-linecap="round" stroke-linejoin="round"/>
<path d="M12.5904 5.97726C13.096 5.9785 13.5883 5.81467 13.9924 5.51067C14.3965 5.20666 14.6903 4.77908 14.8293 4.29287C14.9682 3.80667 14.9447 3.28839 14.7623 2.81677C14.5799 2.34515 14.2485 1.94594 13.8185 1.67979C13.3886 1.41363 12.8835 1.29507 12.38 1.3421C11.8765 1.38914 11.4022 1.5992 11.0289 1.94039C10.6557 2.28158 10.404 2.73525 10.3121 3.23251C10.2202 3.72976 10.2931 4.24342 10.5197 4.69548" stroke="#4F4F4F" stroke-linecap="round" stroke-linejoin="round"/>
<path d="M10.5256 11.3125C10.3003 11.7634 10.2281 12.2756 10.3202 12.7712C10.4123 13.2668 10.6635 13.7189 11.0358 14.0589C11.408 14.3988 11.881 14.6081 12.383 14.6549C12.8849 14.7017 13.3884 14.5835 13.8171 14.3183C14.2458 14.053 14.5763 13.6552 14.7584 13.1851C14.9405 12.715 14.9644 12.1984 14.8263 11.7135C14.6882 11.2287 14.3958 10.8021 13.9933 10.4985C13.5909 10.1949 13.1004 10.0309 12.5963 10.0313" stroke="#4F4F4F" stroke-linecap="round" stroke-linejoin="round"/>
<path d="M12.5946 5.97709C12.1645 5.9767 11.743 5.85659 11.3772 5.63021C11.0115 5.40383 10.7161 5.08011 10.5239 4.69531L5.97656 6.9687C6.13879 7.28971 6.22332 7.64435 6.22332 8.00403C6.22332 8.3637 6.13879 8.71835 5.97656 9.03936L10.5239 11.3133C10.7161 10.9285 11.0115 10.6048 11.3772 10.3784C11.743 10.152 12.1645 10.0319 12.5946 10.0315" stroke="#4F4F4F" stroke-linecap="round" stroke-linejoin="round"/>
</svg>
