<svg width="16" height="16" viewBox="0 0 16 16" fill="none" xmlns="http://www.w3.org/2000/svg">
<g clip-path="url(#clip0_6366_28975)">
<path d="M6.10914 14.4626C5.44632 14.8908 4.65647 15.0775 3.8724 14.9911C3.08835 14.9047 2.35788 14.5506 1.80386 13.9882L1.31952 13.5139C1.10717 13.2964 0.988281 13.0042 0.988281 12.7001C0.988281 12.3958 1.10717 12.1037 1.31952 11.8862L3.37529 9.84877C3.59067 9.63679 3.88056 9.518 4.18254 9.518C4.4845 9.518 4.7744 9.63679 4.98977 9.84877C5.20696 10.0614 5.49865 10.1805 5.8024 10.1805C6.10615 10.1805 6.39782 10.0614 6.61502 9.84877L9.84398 6.61484C9.95169 6.50853 10.0372 6.38183 10.0956 6.24211C10.154 6.10238 10.1841 5.95244 10.1841 5.80098C10.1841 5.64951 10.154 5.49956 10.0956 5.35983C10.0372 5.22011 9.95169 5.09341 9.84398 4.9871C9.63232 4.77139 9.51372 4.48105 9.51372 4.17862C9.51372 3.87618 9.63232 3.58584 9.84398 3.37013L11.889 1.32198C12.1062 1.10931 12.3978 0.990234 12.7016 0.990234C13.0054 0.990234 13.297 1.10931 13.5143 1.32198L13.9879 1.80707C14.5493 2.36195 14.9028 3.09352 14.9891 3.8788C15.0754 4.66406 14.889 5.45513 14.4614 6.11897C12.2334 9.40759 9.39845 12.2395 6.10914 14.4626Z" stroke="white" stroke-linecap="round" stroke-linejoin="round"/>
</g>
<defs>
<clipPath id="clip0_6366_28975">
<rect width="16" height="16" fill="white"/>
</clipPath>
</defs>
</svg>
