<svg width="24" height="24" viewBox="0 0 24 24" fill="none" xmlns="http://www.w3.org/2000/svg">
<g clip-path="url(#clip0_815_31934)">
<path d="M18.9995 7.50098L9.99951 7.50098C9.72337 7.50098 9.49951 7.72484 9.49951 8.00098L9.49951 10.001C9.49951 10.2771 9.72337 10.501 9.99951 10.501L18.9995 10.501C19.2756 10.501 19.4995 10.2771 19.4995 10.001L19.4995 8.00098C19.4995 7.72484 19.2756 7.50098 18.9995 7.50098Z" stroke="white" stroke-width="0.9" stroke-linecap="round" stroke-linejoin="round"/>
<path d="M11.4995 14.499L14.4995 14.499" stroke="white" stroke-width="0.9" stroke-linecap="round" stroke-linejoin="round"/>
<path d="M9.49951 16.5L14.4995 16.5" stroke="white" stroke-width="0.9" stroke-linecap="round" stroke-linejoin="round"/>
<path d="M18 17.001C18.8284 17.001 19.5 16.3294 19.5 15.501C19.5 14.6726 18.8284 14.001 18 14.001C17.1716 14.001 16.5 14.6726 16.5 15.501C16.5 16.3294 17.1716 17.001 18 17.001Z" stroke="white" stroke-width="0.9" stroke-linecap="round" stroke-linejoin="round"/>
<path d="M21.4995 12C21.4901 11.5321 21.645 11.0757 21.9374 10.7103C22.2297 10.3448 22.6409 10.0935 23.0995 10C23.2124 9.97695 23.3139 9.91558 23.3868 9.82629C23.4597 9.737 23.4995 9.62527 23.4995 9.51L23.4995 5.5C23.4995 5.23478 23.3941 4.98043 23.2066 4.79289C23.0191 4.60536 22.7647 4.5 22.4995 4.5L1.49951 4.5C1.23429 4.5 0.979942 4.60536 0.792405 4.79289C0.604869 4.98043 0.499512 5.23478 0.499512 5.5L0.499512 9.55C0.508252 9.65828 0.552017 9.76076 0.624187 9.84196C0.696357 9.92315 0.793005 9.97863 0.899512 10C1.42994 10 1.93865 10.2107 2.31372 10.5858C2.6888 10.9609 2.89951 11.4696 2.89951 12C2.89951 12.5304 2.6888 13.0391 2.31372 13.4142C1.93865 13.7893 1.42994 14 0.899513 14C0.786577 14.0231 0.685073 14.0844 0.612182 14.1737C0.539291 14.263 0.499489 14.3747 0.499513 14.49L0.499513 18.5C0.499513 18.7652 0.60487 19.0196 0.792406 19.2071C0.979943 19.3946 1.23429 19.5 1.49951 19.5L22.4995 19.5C22.7647 19.5 23.0191 19.3946 23.2066 19.2071C23.3941 19.0196 23.4995 18.7652 23.4995 18.5L23.4995 14.45C23.4995 14.3347 23.4597 14.223 23.3868 14.1337C23.3139 14.0444 23.2124 13.9831 23.0995 13.96C22.6478 13.8678 22.2417 13.6223 21.9502 13.2652C21.6586 12.908 21.4994 12.4611 21.4995 12Z" stroke="white" stroke-linecap="round" stroke-linejoin="round"/>
<path d="M5.25 7.00098C5.11193 7.00098 5 6.88905 5 6.75098C5 6.61291 5.11193 6.50098 5.25 6.50098" stroke="white" stroke-width="0.9"/>
<path d="M5.25 7.00098C5.38807 7.00098 5.5 6.88905 5.5 6.75098C5.5 6.61291 5.38807 6.50098 5.25 6.50098" stroke="white" stroke-width="0.9"/>
<path d="M5.25 9.50098C5.11193 9.50098 5 9.38905 5 9.25098C5 9.11291 5.11193 9.00098 5.25 9.00098" stroke="white" stroke-width="0.9"/>
<path d="M5.25049 9.50098C5.38856 9.50098 5.50049 9.38905 5.50049 9.25098C5.50049 9.11291 5.38856 9.00098 5.25049 9.00098" stroke="white" stroke-width="0.9"/>
<path d="M5.25 11.999C5.11193 11.999 5 11.8871 5 11.749C5 11.6109 5.11193 11.499 5.25 11.499" stroke="white" stroke-width="0.9"/>
<path d="M5.25049 11.999C5.38856 11.999 5.50049 11.8871 5.50049 11.749C5.50049 11.6109 5.38856 11.499 5.25049 11.499" stroke="white" stroke-width="0.9"/>
<path d="M5.25049 14.502C5.11242 14.502 5.00049 14.3901 5.00049 14.252C5.00049 14.1139 5.11242 14.002 5.25049 14.002" stroke="white" stroke-width="0.9"/>
<path d="M5.25049 14.502C5.38856 14.502 5.50049 14.3901 5.50049 14.252C5.50049 14.1139 5.38856 14.002 5.25049 14.002" stroke="white" stroke-width="0.9"/>
<path d="M5.24951 17C5.11144 17 4.99951 16.8881 4.99951 16.75C4.99951 16.6119 5.11144 16.5 5.24951 16.5" stroke="white" stroke-width="0.9"/>
<path d="M5.25 17C5.38807 17 5.5 16.8881 5.5 16.75C5.5 16.6119 5.38807 16.5 5.25 16.5" stroke="white" stroke-width="0.9"/>
</g>
<defs>
<clipPath id="clip0_815_31934">
<rect width="24" height="24" fill="white"/>
</clipPath>
</defs>
</svg>
