<svg width="16" height="17" viewBox="0 0 16 17" fill="none" xmlns="http://www.w3.org/2000/svg">
<path d="M15.6673 10.814C15.6697 10.7351 15.6435 10.6581 15.5937 10.5969C15.5439 10.5356 15.4737 10.4944 15.396 10.4807C14.9163 10.4159 14.4764 10.1793 14.1578 9.8148C13.8393 9.45033 13.6637 8.98273 13.6637 8.49867C13.6637 8.0146 13.8393 7.547 14.1578 7.18253C14.4764 6.81804 14.9163 6.58146 15.396 6.51667C15.4738 6.50307 15.544 6.46187 15.5939 6.40063C15.6437 6.3394 15.6698 6.26225 15.6673 6.18333V3.83333C15.6673 3.74493 15.6322 3.66014 15.5697 3.59763C15.5072 3.53512 15.4224 3.5 15.334 3.5H0.667318C0.578912 3.5 0.494128 3.53512 0.431616 3.59763C0.369103 3.66014 0.333984 3.74493 0.333984 3.83333V6.19067C0.334134 6.27077 0.36312 6.34813 0.41564 6.40861C0.468158 6.46909 0.540698 6.50863 0.619984 6.52C1.09672 6.58793 1.53294 6.82559 1.84852 7.18933C2.1641 7.55307 2.33785 8.01847 2.33785 8.5C2.33785 8.98153 2.1641 9.44693 1.84852 9.81067C1.53294 10.1744 1.09672 10.4121 0.619984 10.48C0.540698 10.4914 0.468158 10.5309 0.41564 10.5914C0.36312 10.6519 0.334134 10.7293 0.333984 10.8093V13.1667C0.333984 13.2551 0.369103 13.3399 0.431616 13.4024C0.494128 13.4649 0.578912 13.5 0.667318 13.5H15.334C15.4224 13.5 15.5072 13.4649 15.5697 13.4024C15.6322 13.3399 15.6673 13.2551 15.6673 13.1667V10.814Z" stroke="black" stroke-width="0.5" stroke-linecap="round" stroke-linejoin="round"/>
<path d="M10.0007 5.5H4.66732C4.48322 5.5 4.33398 5.64924 4.33398 5.83333V11.1667C4.33398 11.3507 4.48322 11.5 4.66732 11.5H10.0007C10.1847 11.5 10.334 11.3507 10.334 11.1667V5.83333C10.334 5.64924 10.1847 5.5 10.0007 5.5Z" stroke="black" stroke-width="0.5" stroke-linecap="round" stroke-linejoin="round"/>
<path d="M6.33398 7.5H8.33398" stroke="black" stroke-width="0.5" stroke-linecap="round" stroke-linejoin="round"/>
<path d="M6.33398 9.5H8.33398" stroke="black" stroke-width="0.5" stroke-linecap="round" stroke-linejoin="round"/>
<path d="M12.5007 5.33333C12.4086 5.33333 12.334 5.25871 12.334 5.16667C12.334 5.07462 12.4086 5 12.5007 5" stroke="black" stroke-width="0.5"/>
<path d="M12.5 5.33333C12.5921 5.33333 12.6667 5.25871 12.6667 5.16667C12.6667 5.07462 12.5921 5 12.5 5" stroke="black" stroke-width="0.5"/>
<path d="M12.5007 7.33333C12.4086 7.33333 12.334 7.25873 12.334 7.16667C12.334 7.07462 12.4086 7 12.5007 7" stroke="black" stroke-width="0.5"/>
<path d="M12.5 7.33333C12.5921 7.33333 12.6667 7.25873 12.6667 7.16667C12.6667 7.07462 12.5921 7 12.5 7" stroke="black" stroke-width="0.5"/>
<path d="M12.5007 10.0013C12.4086 10.0013 12.334 9.9267 12.334 9.83463C12.334 9.74257 12.4086 9.66797 12.5007 9.66797" stroke="black" stroke-width="0.5"/>
<path d="M12.5 10.0013C12.5921 10.0013 12.6667 9.9267 12.6667 9.83463C12.6667 9.74257 12.5921 9.66797 12.5 9.66797" stroke="black" stroke-width="0.5"/>
<path d="M12.5007 12.0013C12.4086 12.0013 12.334 11.9267 12.334 11.8346C12.334 11.7426 12.4086 11.668 12.5007 11.668" stroke="black" stroke-width="0.5"/>
<path d="M12.5 12.0013C12.5921 12.0013 12.6667 11.9267 12.6667 11.8346C12.6667 11.7426 12.5921 11.668 12.5 11.668" stroke="black" stroke-width="0.5"/>
</svg>
