<svg width="360" height="452" viewBox="0 0 360 452" fill="none" xmlns="http://www.w3.org/2000/svg">
<path d="M104.42 1H25.7449C23.0249 1 20.4913 2.38199 19.0187 4.66885L2.27385 30.6731C1.44223 31.9646 1 33.4682 1 35.0043V422.094C1 423.812 1.5531 425.484 2.57745 426.864L18.1035 447.77C19.6128 449.802 21.9947 451 24.5261 451H106.514C109.24 451 111.778 449.612 113.249 447.317L125.357 428.423C126.828 426.128 129.367 424.74 132.093 424.74H181.108H230.474C233.005 424.74 235.387 425.938 236.896 427.97L251.601 447.77C253.11 449.802 255.492 451 258.024 451H332.897C335.391 451 337.742 449.837 339.255 447.855L357.358 424.146C358.423 422.752 359 421.046 359 419.291V35.0043C359 33.4682 358.558 31.9646 357.726 30.6731L340.981 4.66885C339.509 2.38199 336.975 1 334.255 1H258.072C255.266 1 252.665 2.47035 251.217 4.87469L236.832 28.7767C235.385 31.181 232.784 32.6514 229.978 32.6514H131.523C128.627 32.6514 125.958 31.0867 124.543 28.5603L111.4 5.09109C109.985 2.56468 107.316 1 104.42 1Z" stroke="white"/>
</svg>
