<svg width="358" height="373" viewBox="0 0 358 373" fill="none" xmlns="http://www.w3.org/2000/svg">
<path fill-rule="evenodd" clip-rule="evenodd" d="M350 1H8C4.13401 1 1 4.13401 1 8V217.77C7.37932 218.214 12.5 222.867 12.5 228.669C12.5 234.47 7.37932 239.124 1 239.568V365C1 368.866 4.13401 372 8 372H350C353.866 372 357 368.866 357 365V239.568C350.621 239.125 345.5 234.471 345.5 228.67C345.5 222.868 350.621 218.215 357 217.771V8C357 4.13401 353.866 1 350 1ZM358 217.736V218.235V218.736C351.581 218.736 346.5 223.247 346.5 228.67C346.5 234.092 351.581 238.603 358 238.603V239.102V239.603V365C358 369.418 354.418 373 350 373H8C3.58173 373 0 369.418 0 365V239.602V239.102V238.602C6.41924 238.602 11.5 234.092 11.5 228.669C11.5 223.246 6.41924 218.735 0 218.735V218.235V217.735V8C0 3.58172 3.58172 0 8 0H350C354.418 0 358 3.58172 358 8V217.736Z" fill="white"/>
</svg>
