<svg width="16" height="16" viewBox="0 0 16 16" fill="none" xmlns="http://www.w3.org/2000/svg">
<path d="M7.99995 2.40005C7.78778 2.40005 7.5843 2.31576 7.43427 2.16573C7.28424 2.01571 7.19995 1.81222 7.19995 1.60005C7.19995 1.38788 7.28424 1.18439 7.43427 1.03436C7.5843 0.884334 7.78778 0.800049 7.99995 0.800049" stroke="black" stroke-linecap="round" stroke-linejoin="round"/>
<path d="M8 2.40005C8.21217 2.40005 8.41566 2.31576 8.56569 2.16573C8.71571 2.01571 8.8 1.81222 8.8 1.60005C8.8 1.38788 8.71571 1.18439 8.56569 1.03436C8.41566 0.884334 8.21217 0.800049 8 0.800049" stroke="black" stroke-linecap="round" stroke-linejoin="round"/>
<path d="M7.99995 15.2C7.78778 15.2 7.5843 15.1157 7.43427 14.9657C7.28424 14.8156 7.19995 14.6121 7.19995 14.4C7.19995 14.1878 7.28424 13.9843 7.43427 13.8343C7.5843 13.6843 7.78778 13.6 7.99995 13.6" stroke="black" stroke-linecap="round" stroke-linejoin="round"/>
<path d="M8 15.2C8.21217 15.2 8.41566 15.1157 8.56569 14.9657C8.71571 14.8156 8.8 14.6121 8.8 14.4C8.8 14.1878 8.71571 13.9843 8.56569 13.8343C8.41566 13.6843 8.21217 13.6 8 13.6" stroke="black" stroke-linecap="round" stroke-linejoin="round"/>
<path d="M7.99995 8.79995C7.78778 8.79995 7.5843 8.71567 7.43427 8.56564C7.28424 8.41561 7.19995 8.21212 7.19995 7.99995C7.19995 7.78778 7.28424 7.5843 7.43427 7.43427C7.5843 7.28424 7.78778 7.19995 7.99995 7.19995" stroke="black" stroke-linecap="round" stroke-linejoin="round"/>
<path d="M8 8.79995C8.21217 8.79995 8.41566 8.71567 8.56569 8.56564C8.71571 8.41561 8.8 8.21212 8.8 7.99995C8.8 7.78778 8.71571 7.5843 8.56569 7.43427C8.41566 7.28424 8.21217 7.19995 8 7.19995" stroke="black" stroke-linecap="round" stroke-linejoin="round"/>
</svg>
